<svg xmlns="http://www.w3.org/2000/svg" xmlns:xlink="http://www.w3.org/1999/xlink" viewBox="0 0 542.35 409.97"><defs><style>.cls-1{fill:url(#linear-gradient);}.cls-2{fill:url(#linear-gradient-2);}.cls-3{fill:#6aafe8;}.cls-4{fill:url(#linear-gradient-3);}.cls-5{fill:url(#linear-gradient-4);}.cls-6{fill:url(#linear-gradient-5);}.cls-7{fill:url(#linear-gradient-6);}.cls-8{fill:url(#linear-gradient-7);}.cls-9{fill:#fff;}.cls-10{fill:url(#linear-gradient-8);}.cls-11{fill:url(#linear-gradient-9);}.cls-12{fill:url(#linear-gradient-10);}.cls-13{fill:url(#linear-gradient-11);}.cls-14{fill:#1487e3;}.cls-15{fill:#78c2ff;}.cls-16{fill:#ff7e55;}.cls-17{fill:#424773;}.cls-18{fill:#292c47;}.cls-19{fill:#eea886;}.cls-20{fill:#754836;}.cls-21{fill:#e2d2ca;}.cls-22{fill:#ffcb55;}.cls-23{fill:#a1d4ff;}.cls-24{fill:url(#linear-gradient-12);}.cls-25{fill:url(#linear-gradient-13);}.cls-26{fill:#4d78eb;}.cls-27{fill:#e0e0e0;}.cls-28{fill:#ff8761;}.cls-29{opacity:0.76;}.cls-30{fill:#4aafff;}.cls-31{fill:#1a598c;}.cls-32{fill:#2273b5;}.cls-33{fill:#3788cc;}.cls-34{fill:#414773;}.cls-35{fill:#2d314f;}.cls-36{fill:#2b3b57;}.cls-37{fill:#ffc655;}.cls-38{fill:#353a3d;}.cls-39{fill:#d4d8e8;}.cls-40{fill:#e55353;}.cls-41{fill:#6069a8;}.cls-42{fill:#202338;}.cls-43{fill:#464240;}.cls-44{fill:#eb4747;}.cls-45{fill:#325bb3;}.cls-46{fill:#a77860;}.cls-47{fill:#5e5853;}.cls-48{fill:#91887f;}.cls-49{fill:#eddad3;}.cls-50{fill:#6e6760;}.cls-51{fill:#807066;}</style><linearGradient id="linear-gradient" x1="114.97" y1="219.57" x2="415.4" y2="219.57" gradientTransform="translate(516.69 439.13) rotate(-180)" gradientUnits="userSpaceOnUse"><stop offset="0" stop-color="#40d5e6"/><stop offset="1" stop-color="#57f"/></linearGradient><linearGradient id="linear-gradient-2" x1="132.69" y1="206.27" x2="383.52" y2="206.27" gradientTransform="translate(516.21 412.53) rotate(-180)" gradientUnits="userSpaceOnUse"><stop offset="0" stop-color="#404b61"/><stop offset="0.49" stop-color="#3c4860"/><stop offset="1" stop-color="#2f3e5c"/></linearGradient><linearGradient id="linear-gradient-3" x1="463.69" y1="298.88" x2="528.23" y2="298.88" gradientUnits="userSpaceOnUse"><stop offset="0" stop-color="#3076a1"/><stop offset="1" stop-color="#639c38"/></linearGradient><linearGradient id="linear-gradient-4" x1="458.09" y1="289.47" x2="542.35" y2="289.47" xlink:href="#linear-gradient-3"/><linearGradient id="linear-gradient-5" x1="438.73" y1="276.72" x2="493.08" y2="276.72" xlink:href="#linear-gradient-3"/><linearGradient id="linear-gradient-6" x1="453.83" y1="288.48" x2="470.31" y2="288.48" xlink:href="#linear-gradient-3"/><linearGradient id="linear-gradient-7" x1="416.54" y1="291.74" x2="469.74" y2="291.74" xlink:href="#linear-gradient-3"/><linearGradient id="linear-gradient-8" x1="452.16" y1="412.28" x2="496.92" y2="238.21" xlink:href="#linear-gradient-3"/><linearGradient id="linear-gradient-9" x1="468.43" y1="322.05" x2="488.1" y2="322.05" xlink:href="#linear-gradient-3"/><linearGradient id="linear-gradient-10" x1="451.54" y1="357.51" x2="487.9" y2="357.51" gradientUnits="userSpaceOnUse"><stop offset="0" stop-color="#ff9340"/><stop offset="1" stop-color="#ffce45"/></linearGradient><linearGradient id="linear-gradient-11" x1="451.54" y1="357.51" x2="487.9" y2="357.51" gradientUnits="userSpaceOnUse"><stop offset="0" stop-color="#c97332"/><stop offset="1" stop-color="#ffce45"/></linearGradient><linearGradient id="linear-gradient-12" x1="258.39" y1="280.11" x2="258.39" y2="446.69" gradientTransform="matrix(1, 0, 0, 1, 0, 0)" xlink:href="#linear-gradient"/><linearGradient id="linear-gradient-13" x1="-59.07" y1="405.67" x2="270.42" y2="405.67" gradientTransform="matrix(1, 0, 0, 1, 0, 0)" xlink:href="#linear-gradient"/></defs><title>Asset 1</title><g id="Layer_2" data-name="Layer 2"><g id="Слой_1" data-name="Слой 1"><path class="cls-1" d="M123.13,119.41H393.56a0,0,0,0,1,0,0V310.25a9.47,9.47,0,0,1-9.47,9.47H132.6a9.47,9.47,0,0,1-9.47-9.47V119.41A0,0,0,0,1,123.13,119.41Z" transform="translate(516.69 439.13) rotate(180)"/><rect class="cls-2" x="132.69" y="129.22" width="250.83" height="154.09" transform="translate(516.21 412.53) rotate(180)"/><path class="cls-3" d="M106.34,129.93H42.54l.11-.57A11.23,11.23,0,0,1,56,120.54a19.15,19.15,0,0,1,32.41-2.37,14,14,0,0,1,17.87,11.22Zm-62.63-1h61.5a13.11,13.11,0,0,0-12.77-10.47,13,13,0,0,0-4.1.66l-.34.11-.2-.29a18.2,18.2,0,0,0-31.15,2.3l-.17.34-.37-.09a10.18,10.18,0,0,0-2.44-.3A10.29,10.29,0,0,0,43.71,129Z"/><path class="cls-3" d="M340.66,51.4l-.22-.11c-22.64-11.56-19.6-33.95-19.57-34.17l.06-.41h.41c14.4,0,18.92-4.64,19-4.69l.35-.37L341,12s4.57,4.68,19,4.68h.41l.06.41c0,.22,3.07,22.61-19.57,34.17ZM321.77,17.66c-.29,3-1.24,22.25,18.88,32.67,20.13-10.42,19.17-29.63,18.89-32.67C347,17.58,342,14.1,340.66,13,339.36,14.1,334.27,17.58,321.77,17.66Z"/><path class="cls-4" d="M464.55,348.93c-3.41-15.57,4-19.46,11.08-23.22,5.82-3.07,11.32-6,11-15.15-.39-12.17,7.9-16.59,15.21-20.5,5.44-2.91,10.58-5.65,11.35-11.19,1.84-13.32,14.13-29.88,14.26-30l.76.57c-.12.16-12.26,16.53-14.08,29.61-.83,6-6.18,8.87-11.84,11.9-7.41,4-15.08,8.05-14.71,19.63.31,9.77-5.71,13-11.53,16-7.12,3.76-13.84,7.31-10.59,22.17Z"/><path class="cls-5" d="M468.29,345l-.49,0c-3.08-.23-6.1-2.57-9.5-7.36l-.21-.3.24-.28c.05-.07,5.51-6.71,3.51-19.19a58.38,58.38,0,0,0-1.59-6.93c-.73-2.61-1.22-4.34-.41-5.71,1-1.75,3.81-2.66,11.64-4.53,8.34-2,11.12-11.38,13.58-19.67,2.32-7.81,4.51-15.17,11-14.94,6,.23,15-9.11,23-17.35,7.41-7.64,14.41-14.84,18.88-14.7a3.57,3.57,0,0,1,2.69,1.34c4,4.75.27,12-3.33,18.92-3.07,5.94-6,11.56-4.1,15.26,2.35,4.65,2.67,8.86.95,12.17-2,3.92-6.79,6.45-14.13,7.51-6.71,1-7.44,8.29-8.2,16-.9,9-1.91,19.29-13.17,20.27-8.36.72-14,6.59-19,11.77C475.71,341.38,472.27,345,468.29,345Zm-9-7.64c3.1,4.29,5.91,6.48,8.59,6.68,3.74.28,7.15-3.28,11.1-7.39,5.09-5.3,10.86-11.31,19.58-12.06,10.47-.91,11.4-10.31,12.31-19.41.81-8.13,1.57-15.81,9-16.89,7-1,11.54-3.37,13.43-7,1.58-3,1.25-6.94-1-11.3-2.09-4.14.92-10,4.11-16.13,3.46-6.69,7-13.61,3.45-17.87a2.62,2.62,0,0,0-2-1c-4-.13-10.9,6.92-18.16,14.41C511.32,258,502.63,267,496.26,267H496c-5.75-.21-7.75,6.49-10,14.26-2.53,8.54-5.4,18.21-14.28,20.32-7.08,1.69-10.18,2.63-11,4.08-.61,1-.19,2.51.5,5a59.33,59.33,0,0,1,1.62,7C464.63,329.25,460.36,335.87,459.28,337.32Z"/><path class="cls-6" d="M468.64,341.7l-.33,0c-5.05-.46-8.94-11.53-12.69-22.23a106.49,106.49,0,0,0-5.1-12.95c-1.27-2.39-2.89-4.88-4.45-7.28-4.16-6.41-8.46-13-7.06-18.86.74-3.06,2.93-5.61,6.71-7.79,8.28-4.77,7-7.46,4.21-13.37-2-4.33-4.85-10.26-5-19.6,0-4-.14-7.48-.22-10.54-.26-9.84-.4-14.78,1.71-16.57.87-.74,2.09-.93,3.83-.6,3,.57,4.27,3,5.63,5.52,1.74,3.25,3.71,6.93,9.67,8.18,5.59,1.17,11,2.76,12.44,6.48,1,2.61.06,6-3,10.5a3.41,3.41,0,0,0-.78,2.81c.49,1.79,3.27,3.09,6.49,4.6,4.59,2.14,10.29,4.8,11.91,10.32,1.3,4.45-.21,10-4.61,17-10.42,16.47-10,27.64-9.63,37.49.27,7.3.53,14.2-3.87,21.9C472.57,340,470.65,341.7,468.64,341.7Zm-19.85-129a2.55,2.55,0,0,0-1.72.53c-1.75,1.49-1.62,6.58-1.37,15.81.08,3.06.17,6.54.22,10.56.11,9.13,2.86,15,4.87,19.21,2.77,5.86,4.44,9.39-4.6,14.6-3.54,2-5.59,4.39-6.26,7.18-1.3,5.42,2.89,11.87,6.94,18.12,1.57,2.42,3.2,4.93,4.49,7.35a106.91,106.91,0,0,1,5.16,13.08c3.49,9.93,7.44,21.19,11.88,21.59,1.7.15,3.48-1.38,5.3-4.57,4.27-7.47,4-13.92,3.75-21.4-.37-10-.8-21.32,9.78-38,4.25-6.72,5.72-12,4.5-16.17-1.5-5.1-6.76-7.56-11.4-9.72-3.44-1.6-6.41-3-7-5.21a4.28,4.28,0,0,1,.92-3.6c2.88-4.17,3.83-7.31,2.92-9.6-1.32-3.3-6.68-4.83-11.75-5.9-6.39-1.34-8.56-5.4-10.31-8.66-1.31-2.44-2.44-4.55-5-5A7.08,7.08,0,0,0,448.79,212.7Z"/><path class="cls-7" d="M468.74,347.6l-.91-.29c5.09-16.09-4.12-52.21-6.86-61-1.35-4.32-.1-10.83,1.1-17.12,1.56-8.12,3.17-16.53-.94-19.68-7.71-5.91-7.31-19.6-7.29-20.18l1,0c0,.14-.41,13.77,6.92,19.39,4.58,3.51,2.91,12.2,1.29,20.61-1.18,6.18-2.41,12.56-1.13,16.65C465.27,296.91,473.82,331.55,468.74,347.6Z"/><path class="cls-8" d="M430.22,243.06c-2.12-5.38-10.4-4.56-9.64,3s6.09,15.73-2,28.66,10.4,15.47,17,23.59,8.88,19.28,14.46,26.38,9.38,24.1,13.95,17.75.27-14.59.78-26,10.67-18.64.51-26-20.38-9.61-17-26.2C449.7,257,436.82,259.8,430.22,243.06Z"/><path class="cls-9" d="M471.35,344c-.06-.34-5.7-33.77-18.33-42.93-12.88-9.34-15.22-18-19.72-38.33l.93-.21c4.44,20.1,6.75,28.62,19.34,37.76,12.95,9.39,18.48,42.16,18.71,43.55Z"/><path class="cls-10" d="M460,342.76s3.75-9.28-3.08-22.47S444.52,309.13,461,299s.1-42.11,14.12-46.17S501.29,197,511.95,203.6s-3.55,32,4.06,39.56,8.63,17.29-7.1,25.14,11.16,37.78-10.15,46.91S483.56,360.16,460,342.76Z"/><path class="cls-9" d="M466.46,352.6c0-.12-2.32-12,4.92-27.35,7.37-15.64,10.91-32.74,9.44-45.74-.79-7,3.72-9.79,8.08-12.46s8.73-5.33,8.49-12.27c-.22-6.27,2.43-21,2.54-21.58l.94.17c0,.15-2.75,15.21-2.53,21.37.26,7.49-4.42,10.35-8.95,13.12-4.3,2.62-8.35,5.1-7.63,11.54,1.48,13.17-2.08,30.46-9.53,46.25-7.1,15-4.88,26.64-4.85,26.76Z"/><path class="cls-9" d="M483.68,287c4.79-4.44,11.11-5.08,9.79,1.51s-5.84,8.48-3.58,12.62,6,8.29-.38,13.37-10,5.65-11.87,15.26-1.51,16.17-9.8,16.58-5.09-11.68-2.45-17.14a18.12,18.12,0,0,0,1.32-14.42c-2.64-8.19-7.72-12.61,3-15.39S480.46,290,483.68,287Z"/><path class="cls-11" d="M468.46,352.52c0-1.18-.6-28.85,4.58-33.51s6.3-13.16,6.44-17.75c.18-6,7.9-9.53,8.23-9.67l.39.87c-.08,0-7.51,3.45-7.67,8.83-.17,5.79-1.48,13.69-6.75,18.43-4.85,4.37-4.27,32.5-4.26,32.78Z"/><polygon class="cls-12" points="487.9 341.22 479.31 373.8 460.13 373.8 451.54 341.22 487.9 341.22"/><path class="cls-13" d="M487.9,341.22S469,344.77,469,373.8h-8.87l-8.59-32.58Z"/><rect class="cls-14" x="124.35" y="256.09" width="25.27" height="2.86"/><polygon class="cls-15" points="119.08 177.14 78.74 177.14 78.74 125.56 79.69 125.56 79.69 176.19 119.08 176.19 119.08 177.14"/><polygon class="cls-15" points="289.81 143.16 288.85 143.16 288.85 89.97 340.18 89.97 340.18 45.23 341.14 45.23 341.14 90.92 289.81 90.92 289.81 143.16"/><polygon class="cls-15" points="455.63 202.4 402.22 202.4 402.22 201.45 454.67 201.45 454.67 170.44 455.63 170.44 455.63 202.4"/><path class="cls-16" d="M56.34,245.5s-1.14,16,2,18c2,1.2,9.79,5.26,9.56,6s-4.42,6.77-4.42,6.77-15-9.91-15.53-13,.74-23.5,2.81-24.44c1.55-.71,2.37-.12,4.32,1.33C57.81,242.16,56.34,245.5,56.34,245.5Z"/><path class="cls-17" d="M54.59,362.28s-.47,3.25-.53,3.73-5.2-.29-5.2-.29l-.42-3.87S54,361.82,54.59,362.28Z"/><path class="cls-18" d="M54.12,365.6a13.86,13.86,0,0,0,3.21,2.81c1.58.85,4.05,1.19,5,2.07.67.64,2.45,3.38-4.1,3.32s-9.71.39-10.41-.66,1-7.76,1-7.76S50.38,365.94,54.12,365.6Z"/><path class="cls-17" d="M80.34,362.28s-.47,3.25-.53,3.73-5.2-.29-5.2-.29l-.42-3.87S79.7,361.82,80.34,362.28Z"/><path class="cls-18" d="M79.87,365.6a13.88,13.88,0,0,0,3.21,2.81c1.58.85,7.38,1.55,8.31,2.44.67.64,1.79,3.2-7.42,3-6.55-.17-9.71.39-10.41-.66s1-7.76,1-7.76S76,366,79.87,365.6Z"/><path class="cls-18" d="M56.44,278.85s-4.83,7.68-4.47,14.62-.43,14.36-1.16,21.61c-.81,8.09-3,24.91-3.13,29.24s.16,20.6.16,20.6l8.39-.06s3-32.88,4.42-36.29,7.36-28.12,7.6-30.85S56.44,278.85,56.44,278.85Z"/><path class="cls-18" d="M81.89,279.89S83.8,298.76,84.28,303s.15,22.66.39,25.32-1.61,30.75-2.06,36.1l-9.22-.06s-.64-22.72-.64-33.76-2.83-23.89-6.08-31.18S56,292,54,278.46C54,278.46,79.19,275.6,81.89,279.89Z"/><path class="cls-19" d="M61.55,214.09s5.76-3.85,9.8.27,6,13.81,3.13,15.75-7.83,2.44-10.17-.18-4.84-6.63-5.45-9.55S60.09,215.32,61.55,214.09Z"/><path class="cls-19" d="M72.52,230.76s-.08,4,.37,4.91-8.41.89-8.41.89a58.25,58.25,0,0,0-2.08-8.66C61,223.93,72.52,230.76,72.52,230.76Z"/><path class="cls-20" d="M62.63,227.83s.83.84,3.16-.11,4.54-4.88,5.47-5.47.8-1.19.8-1.19l.85.78,1.09-.19s-1.66-2.66-.46-4.18-3.74-9-10.89-4.43c0,0-5.59,3.06-4.57,6.41S60.89,226.46,62.63,227.83Z"/><path class="cls-21" d="M73.42,235.57s0-1.65-.78-1.81-8.25-.88-9.17-.52v1.92S65.24,236.25,73.42,235.57Z"/><path class="cls-19" d="M71.61,219.86c-.27-.54-2.11-1.83-2.25,0s1.8,3.9,2.54,3.51S72.29,221.22,71.61,219.86Z"/><path class="cls-20" d="M59.88,215.08s-8.24,2.21,2.41,12.44Z"/><path class="cls-19" d="M133.48,258.88l-8.39-.08c.72-.42,1.9-1.18,1.64-1.53s-2.75.59-3.71.69a14.15,14.15,0,0,0-3.5.39l-2.65,1.13,2.43,2.25s4.39.63,5.68.72c2.09.15,8.48-2.34,8.59-2.72C133.75,259,133.48,258.88,133.48,258.88Z"/><path class="cls-16" d="M84.38,237.86c-5.34-.94-11-2.29-11-2.29l-9.94-.41s-9.12,2-12.72,3.63c-.34.15-.34,8.14-1.28,10.24l3,6.29s1.72,12.45,2.08,18c.16,2.54-3.55,23.84-3.55,23.84a68.67,68.67,0,0,0,10.77,1.92c6.79.75,23.74-.27,23.85-1.07s-3.28-29.84-3.43-31.35c-.23-2.31.67-13,.67-13,1.28,1.72,8.67,8.16,12.28,10.21,2.57,1.46,8.86.57,10.72.38,4-.41,15.1-1.2,15.32-1.6.17-.24-.64-4.28-1.1-4.43s-14.72-.84-18.31-.66c-1.46.08-6.21-5.23-6.21-5.23S87.32,239.18,84.38,237.86Z"/><polygon class="cls-22" points="23.23 197.66 49.51 197.66 49.51 216.71 49.51 220.72 45.5 216.71 23.23 216.71 23.23 197.66"/><path class="cls-3" d="M446.46,137H420.93V111.5h25.54Zm-24.68-.85h23.83V112.35H421.78Z"/><path class="cls-3" d="M510,120.87H451.57v-6.24H510Zm-57.6-.85h56.74v-4.54H452.42Z"/><path class="cls-3" d="M510,149.89H420.93v-6.24H510ZM421.78,149h87.38V144.5H421.78Z"/><path class="cls-3" d="M477.67,161.88H420.93v-6.24h56.74ZM421.78,161h55v-4.54h-55Z"/><path class="cls-3" d="M491.15,132.77H451.57v-6.24h39.58Zm-38.73-.85h37.88v-4.54H452.42Z"/><path class="cls-3" d="M520.16,175.46H410.78V97.93H520.16Zm-108.52-.85H519.31V98.78H411.63Z"/><polygon class="cls-3" points="372.22 63.21 364.04 63.21 364.04 62.25 371.27 62.25 371.27 55.03 372.22 55.03 372.22 63.21"/><polygon class="cls-3" points="317.19 63.21 309.01 63.21 309.01 55.03 309.96 55.03 309.96 62.25 317.19 62.25 317.19 63.21"/><polygon class="cls-3" points="309.96 8.18 309.01 8.18 309.01 0 317.19 0 317.19 0.95 309.96 0.95 309.96 8.18"/><polygon class="cls-3" points="372.22 8.18 371.27 8.18 371.27 0.96 364.04 0.96 364.04 0 372.22 0 372.22 8.18"/><rect class="cls-3" x="371.27" y="20.4" width="0.95" height="22.41"/><rect class="cls-3" x="309.01" y="20.4" width="0.96" height="22.41"/><path class="cls-15" d="M79.22,126a3.5,3.5,0,1,1,3.5-3.5A3.51,3.51,0,0,1,79.22,126Zm0-6.05a2.55,2.55,0,1,0,2.55,2.55A2.55,2.55,0,0,0,79.22,120Z"/><path class="cls-15" d="M340.66,45.71a3.5,3.5,0,1,1,3.5-3.5A3.51,3.51,0,0,1,340.66,45.71Zm0-6.05a2.55,2.55,0,1,0,2.55,2.55A2.55,2.55,0,0,0,340.66,39.66Z"/><path class="cls-15" d="M455.15,171.08a3.5,3.5,0,1,1,3.5-3.5A3.51,3.51,0,0,1,455.15,171.08Zm0-6.05a2.55,2.55,0,1,0,2.55,2.55A2.55,2.55,0,0,0,455.15,165Z"/><path class="cls-23" d="M102.45,28.78h-24v-24h24Zm-23.09-1H101.5V5.69H79.36Z"/><rect class="cls-23" x="89.95" y="11.29" width="0.95" height="11.21"/><rect class="cls-23" x="84.83" y="16.41" width="11.21" height="0.95"/><path class="cls-23" d="M468.83,57.78H434.47V33.25h34.37Zm-33.41-1h32.46V34.2H435.42Z"/><polygon class="cls-23" points="451.65 48.1 434.64 34.09 435.25 33.35 451.65 46.87 468.06 33.35 468.66 34.09 451.65 48.1"/><rect class="cls-23" x="461.71" y="41.84" width="0.95" height="17.92" transform="translate(91.89 332.01) rotate(-43.49)"/><rect class="cls-23" x="432.15" y="50.32" width="17.92" height="0.95" transform="translate(100.9 336.13) rotate(-46.56)"/><path class="cls-23" d="M162.44,82.42l-.36-.93a5.07,5.07,0,0,1-.94-.22l-.73.68-2.12-1.51.41-.91a5,5,0,0,1-.51-.82l-1,0-.43-2.56.93-.36a5,5,0,0,1,.22-.94l-.68-.73L158.74,72l.91.41a5.06,5.06,0,0,1,.82-.51l0-1,2.56-.43.36.93a5.08,5.08,0,0,1,.94.22l.73-.68,2.12,1.51-.41.91a5,5,0,0,1,.51.82l1,0,.43,2.56-.93.36a5.16,5.16,0,0,1-.22.94l.69.73-1.51,2.12-.91-.41A5,5,0,0,1,165,81l0,1Zm-1.46-2,.21.08a4.34,4.34,0,0,0,1.19.27l.22,0,.31.8,1.41-.24,0-.86.21-.09a4.36,4.36,0,0,0,1-.64l.17-.14.78.35.83-1.16-.59-.62.08-.21a4.33,4.33,0,0,0,.27-1.18l0-.22.8-.31-.24-1.41-.86,0-.09-.2a4.36,4.36,0,0,0-.64-1l-.14-.17.35-.78-1.16-.83-.63.59-.21-.08a4.36,4.36,0,0,0-1.18-.27l-.22,0-.31-.8-1.41.24,0,.86-.21.09a4.36,4.36,0,0,0-1,.64l-.17.14-.78-.35L158.15,74l.59.62-.08.21a4.36,4.36,0,0,0-.27,1.19l0,.22-.8.31L157.8,78l.86,0,.09.2a4.35,4.35,0,0,0,.65,1l.14.17-.35.78,1.16.83Zm1.77-1.19a2.83,2.83,0,1,1,.48,0A2.89,2.89,0,0,1,162.75,79.26Zm0-4.94a2.11,2.11,0,0,0-1.23,3.83h0a2.11,2.11,0,1,0,1.23-3.83Z"/><path class="cls-23" d="M142.59,85.41l-.8-2.09a11.34,11.34,0,0,1-2.51-.57l-1.63,1.53-4.42-3.15.91-2a11.37,11.37,0,0,1-1.36-2.18l-2.23-.07-.9-5.35,2.09-.8a11.32,11.32,0,0,1,.57-2.51l-1.53-1.63,3.14-4.42,2,.91a11.33,11.33,0,0,1,2.18-1.36l.07-2.23,5.35-.9.8,2.09a11.38,11.38,0,0,1,2.51.57l1.63-1.53,4.42,3.15-.91,2a11.35,11.35,0,0,1,1.36,2.18l2.23.07.9,5.35-2.09.8a11.32,11.32,0,0,1-.58,2.51l1.53,1.63-3.15,4.42-2-.91A11.33,11.33,0,0,1,148,82.28l-.07,2.23Zm-3.53-3.76.28.11a10.39,10.39,0,0,0,2.83.65l.3,0,.73,1.91L147,83.7l.06-2,.27-.12A10.37,10.37,0,0,0,149.81,80l.23-.19,1.87.83,2.24-3.15L152.74,76l.11-.28a10.38,10.38,0,0,0,.65-2.83l0-.3,1.91-.73-.64-3.81-2-.06-.12-.27a10.41,10.41,0,0,0-1.54-2.46L150.9,65l.83-1.87-3.15-2.24-1.49,1.4-.28-.11a10.43,10.43,0,0,0-2.83-.65l-.3,0L143,59.63l-3.81.64-.07,2-.27.12A10.4,10.4,0,0,0,136.35,64l-.23.19-1.87-.83L132,66.48l1.4,1.49-.11.28a10.41,10.41,0,0,0-.65,2.83l0,.3-1.91.73.64,3.81,2,.06.12.27a10.39,10.39,0,0,0,1.54,2.46l.19.23-.83,1.87,3.15,2.24Zm4-3.5a6.17,6.17,0,1,1,5-2.59A6.14,6.14,0,0,1,143.07,78.15Zm0-11.38a5.21,5.21,0,1,0,3,1A5.21,5.21,0,0,0,143.08,66.77Z"/><path class="cls-15" d="M17.79,90.43A17.81,17.81,0,0,1,0,72.64H1A16.84,16.84,0,1,0,17.79,55.8v-1a17.79,17.79,0,1,1,0,35.59Zm0-2.47A15.32,15.32,0,1,1,33.11,72.64h-1A14.37,14.37,0,1,0,17.79,87Z"/><polygon class="cls-15" points="15.61 78.53 9.2 72.11 9.87 71.44 15.61 77.18 25.72 67.08 26.39 67.75 15.61 78.53"/><polygon class="cls-24" points="393.55 290.8 258.38 290.8 123.22 290.8 93.64 401.37 259.27 401.37 423.13 401.37 393.55 290.8"/><path class="cls-9" d="M133.45,310.2h16.61a1,1,0,0,1,1.09,1.12l-1.61,7.22a1.08,1.08,0,0,1-1.09.77H131.56a1,1,0,0,1-1.08-1.15l1.89-7.22A1.08,1.08,0,0,1,133.45,310.2Z"/><polygon class="cls-9" points="157.68 310.2 170.23 310.2 168.56 319.31 155.77 319.31 157.68 310.2"/><polygon class="cls-9" points="176.51 310.2 189.06 310.2 187.75 319.31 174.96 319.32 176.51 310.2"/><polygon class="cls-9" points="195.34 310.2 207.9 310.2 206.94 319.31 194.15 319.31 195.34 310.2"/><polygon class="cls-9" points="214.18 310.2 226.73 310.2 226.13 319.31 213.34 319.31 214.18 310.2"/><polygon class="cls-9" points="233.01 310.2 245.57 310.2 245.33 319.31 232.53 319.32 233.01 310.2"/><polygon class="cls-9" points="383.72 310.2 364.89 310.2 366.92 319.31 386.11 319.31 383.72 310.2"/><polygon class="cls-9" points="358.61 310.2 346.06 310.2 347.73 319.31 360.52 319.31 358.61 310.2"/><polygon class="cls-9" points="339.78 310.2 327.22 310.2 328.53 319.31 341.33 319.32 339.78 310.2"/><polygon class="cls-9" points="320.94 310.2 308.39 310.2 309.34 319.31 322.14 319.31 320.94 310.2"/><polygon class="cls-9" points="302.11 310.2 289.55 310.2 290.15 319.31 302.94 319.31 302.11 310.2"/><polygon class="cls-9" points="283.27 310.2 270.72 310.2 270.96 319.31 283.75 319.32 283.27 310.2"/><polygon class="cls-9" points="251.84 310.2 264.4 310.2 264.61 319.31 251.84 319.31 251.84 310.2"/><polygon class="cls-9" points="127.93 326.1 154.16 326.1 152.67 335.5 125.94 335.5 127.93 326.1"/><polygon class="cls-9" points="387.82 326.1 355.39 326.1 357.23 335.5 390.28 335.5 387.82 326.1"/><polygon class="cls-9" points="348.9 326.1 335.93 326.1 337.41 335.5 350.63 335.5 348.9 326.1"/><polygon class="cls-9" points="329.44 326.1 316.47 326.1 317.58 335.5 330.8 335.5 329.44 326.1"/><polygon class="cls-9" points="309.98 326.1 297.01 326.1 297.75 335.5 310.97 335.5 309.98 326.1"/><polygon class="cls-9" points="290.52 326.1 277.55 326.1 277.92 335.5 291.14 335.5 290.52 326.1"/><polygon class="cls-9" points="124.01 342.86 150.83 342.86 148.87 352.2 121.56 352.2 124.01 342.86"/><polygon class="cls-9" points="157.54 342.86 170.95 342.86 169.36 352.2 155.7 352.2 157.54 342.86"/><polygon class="cls-9" points="177.65 342.86 191.06 342.86 278.23 342.86 278.61 352.2 176.19 352.2 177.65 342.86"/><polygon class="cls-9" points="284.94 342.86 298.36 342.86 299.09 352.2 285.43 352.2 284.94 342.86"/><polygon class="cls-9" points="305.06 342.86 318.47 342.86 319.57 352.2 305.92 352.2 305.06 342.86"/><polygon class="cls-9" points="325.18 342.86 338.59 342.86 340.06 352.2 326.4 352.2 325.18 342.86"/><polygon class="cls-9" points="345.3 342.86 358.71 342.86 360.54 352.2 346.89 352.2 345.3 342.86"/><polygon class="cls-9" points="365.41 342.86 392.24 342.86 394.68 352.2 367.37 352.2 365.41 342.86"/><polygon class="cls-9" points="271.09 326.1 258.23 326.1 258.23 335.5 271.34 335.5 271.09 326.1"/><polygon class="cls-9" points="251.64 326.1 238.66 326.1 238.29 335.5 251.51 335.5 251.64 326.1"/><polygon class="cls-9" points="232.18 326.1 219.21 326.1 218.47 335.5 231.69 335.5 232.18 326.1"/><polygon class="cls-9" points="212.72 326.1 199.75 326.1 198.64 335.5 211.86 335.5 212.72 326.1"/><polygon class="cls-9" points="193.26 326.1 180.29 326.1 178.81 335.5 192.03 335.5 193.26 326.1"/><polygon class="cls-9" points="173.8 326.1 160.83 326.1 158.98 335.5 172.2 335.5 173.8 326.1"/><polygon class="cls-9" points="134.06 304.47 136.19 296.33 142.29 296.33 140.3 304.47 134.06 304.47"/><polygon class="cls-9" points="148.39 296.33 160.58 296.33 158.88 304.47 146.47 304.47 148.39 296.33"/><polygon class="cls-9" points="166.68 296.33 178.87 296.33 177.48 304.47 165.08 304.47 166.68 296.33"/><polygon class="cls-9" points="184.97 296.33 197.16 296.33 196.09 304.47 183.69 304.47 184.97 296.33"/><polygon class="cls-9" points="203.25 296.33 215.45 296.33 214.7 304.47 202.3 304.47 203.25 296.33"/><polygon class="cls-9" points="221.54 296.33 233.74 296.33 233.31 304.47 220.9 304.47 221.54 296.33"/><polygon class="cls-9" points="239.83 296.33 252.03 296.33 251.92 304.47 239.51 304.47 239.83 296.33"/><polygon class="cls-9" points="258.12 296.33 270.31 296.33 270.53 304.47 258.12 304.47 258.12 296.33"/><polygon class="cls-9" points="276.41 296.33 288.6 296.33 289.14 304.47 276.73 304.47 276.41 296.33"/><polygon class="cls-9" points="294.7 296.33 306.89 296.33 307.75 304.47 295.34 304.47 294.7 296.33"/><polygon class="cls-9" points="312.99 296.33 325.18 296.33 326.35 304.47 313.95 304.47 312.99 296.33"/><polygon class="cls-9" points="331.28 296.33 343.47 296.33 344.96 304.47 332.56 304.47 331.28 296.33"/><polygon class="cls-9" points="349.57 296.33 361.76 296.33 363.57 304.47 351.17 304.47 349.57 296.33"/><polygon class="cls-9" points="367.86 296.33 380.05 296.33 382.18 304.47 369.77 304.47 367.86 296.33"/><path class="cls-25" d="M414.52,410H102.25a8.61,8.61,0,0,1-8.61-8.61H423.13A8.61,8.61,0,0,1,414.52,410Z"/><path class="cls-26" d="M296.69,365.64a4,4,0,0,0-4-3.37H224.06a4,4,0,0,0-4,3.37l-4.29,26a4,4,0,0,0,4,4.69H297a4,4,0,0,0,4-4.69Z"/><rect class="cls-27" x="149.62" y="142.3" width="27.94" height="2.86"/><rect class="cls-27" x="185.39" y="163.84" width="20.17" height="2.86"/><rect class="cls-14" x="208.71" y="163.84" width="13.39" height="2.86"/><rect class="cls-14" x="149.94" y="218.02" width="13.39" height="2.86"/><rect class="cls-27" x="224.74" y="163.84" width="32.32" height="2.86"/><rect class="cls-27" x="149.94" y="207.17" width="20.77" height="2.86"/><rect class="cls-27" x="178.9" y="228.79" width="12.68" height="2.86"/><rect class="cls-14" x="149.94" y="228.79" width="25.12" height="2.86"/><rect class="cls-27" x="149.94" y="239.56" width="13.86" height="2.86"/><rect class="cls-15" x="183" y="142.3" width="19.84" height="2.86"/><rect class="cls-14" x="183" y="174.61" width="19.84" height="2.86"/><rect class="cls-27" x="173.09" y="185.38" width="8.48" height="2.86"/><rect class="cls-15" x="164.61" y="196.31" width="19.04" height="2.86"/><rect class="cls-14" x="186.53" y="196.31" width="26.28" height="2.86"/><rect class="cls-14" x="149.94" y="185.46" width="19.84" height="2.86"/><rect class="cls-14" x="149.94" y="196.31" width="11.77" height="2.86"/><rect class="cls-28" x="185.56" y="185.46" width="11.1" height="2.86"/><rect class="cls-28" x="150.28" y="250.33" width="11.1" height="2.86"/><rect class="cls-15" x="149.86" y="163.84" width="19.84" height="2.86"/><rect class="cls-15" x="167.41" y="218.02" width="19.84" height="2.86"/><rect class="cls-15" x="167.65" y="239.56" width="19.84" height="2.86"/><rect class="cls-15" x="202.89" y="239.56" width="19.84" height="2.86"/><rect class="cls-15" x="149.86" y="174.61" width="28.28" height="2.86"/><rect class="cls-15" x="282.37" y="142.3" width="19.84" height="2.86"/><rect class="cls-15" x="211.71" y="250.33" width="19.84" height="2.86"/><rect class="cls-15" x="308.38" y="142.3" width="13.28" height="2.86"/><rect class="cls-15" x="353.3" y="153.07" width="13.28" height="2.86"/><rect class="cls-14" x="208.18" y="142.3" width="25.27" height="2.86"/><rect class="cls-14" x="306.65" y="153.07" width="25.27" height="2.86"/><rect class="cls-14" x="275.66" y="163.84" width="25.27" height="2.86"/><rect class="cls-14" x="242.75" y="174.61" width="25.27" height="2.86"/><rect class="cls-15" x="304.11" y="163.84" width="17.97" height="2.86"/><rect class="cls-28" x="252.15" y="142.3" width="25.27" height="2.86"/><rect class="cls-28" x="223.31" y="174.61" width="14.82" height="2.86"/><rect class="cls-28" x="211.71" y="218.18" width="14.82" height="2.86"/><rect class="cls-27" x="238.13" y="142.3" width="9.25" height="2.86"/><rect class="cls-27" x="208.18" y="174.61" width="9.25" height="2.86"/><rect class="cls-27" x="338.02" y="153.07" width="9.25" height="2.86"/><rect class="cls-14" x="149.62" y="153.07" width="14.47" height="2.86"/><rect class="cls-14" x="188.24" y="207.25" width="11.43" height="2.86"/><rect class="cls-14" x="167.65" y="153.07" width="4.67" height="2.86"/><rect class="cls-27" x="263.58" y="153.07" width="38.62" height="2.86"/><rect class="cls-27" x="226.52" y="239.56" width="38.63" height="2.86"/><rect class="cls-28" x="175.76" y="153.07" width="4.77" height="2.86"/><rect class="cls-14" x="247.38" y="153.07" width="12.64" height="2.86"/><rect class="cls-28" x="260.01" y="163.84" width="12.64" height="2.86"/><rect class="cls-28" x="195.04" y="250.33" width="12.64" height="2.86"/><rect class="cls-14" x="217.15" y="153.07" width="26.89" height="2.86"/><rect class="cls-14" x="192.12" y="218.18" width="15.71" height="2.86"/><rect class="cls-14" x="191.11" y="239.56" width="7.86" height="2.86"/><rect class="cls-15" x="204.08" y="153.07" width="9.25" height="2.86"/><rect class="cls-28" x="172.94" y="163.84" width="9.25" height="2.86"/><rect class="cls-28" x="174.79" y="207.25" width="9.25" height="2.86"/><rect class="cls-14" x="184.43" y="153.07" width="16.12" height="2.86"/><g class="cls-29"><rect class="cls-9" x="299.54" y="178.19" width="124.91" height="89.06" rx="4.01" ry="4.01"/></g><rect class="cls-30" x="389.29" y="224.02" width="23.21" height="6.19" rx="1.54" ry="1.54"/><rect class="cls-30" x="389.29" y="235.61" width="23.21" height="6.19" rx="1.54" ry="1.54"/><rect class="cls-30" x="389.29" y="247.2" width="23.21" height="6.19" rx="1.54" ry="1.54"/><path class="cls-30" d="M378.08,210.22a34.48,34.48,0,1,0-64.93,23.22q.39,1.1.85,2.15a34.48,34.48,0,0,0,64.08-25.37Zm-23.76,36a25.82,25.82,0,0,1-32.41-14c-.23-.53-.44-1.06-.64-1.61a25.85,25.85,0,1,1,33,15.64Z"/><path class="cls-31" d="M320.94,214.13l-8.24-2.57a34.52,34.52,0,0,1,31.88-24.2l.26,8.63a25.89,25.89,0,0,0-23.9,18.14Z"/><path class="cls-32" d="M321.91,232.15,314,235.59q-.46-1.05-.85-2.15a34.32,34.32,0,0,1-.45-21.89l8.24,2.57a25.73,25.73,0,0,0,.34,16.41C321.47,231.08,321.68,231.62,321.91,232.15Z"/><path class="cls-33" d="M319.34,244.17a34.31,34.31,0,0,1-5.34-8.58l7.91-3.44a25.68,25.68,0,0,0,4,6.44Z"/><path class="cls-19" d="M357.12,242.28s-1.67-2.92,1-10.76a7.89,7.89,0,0,1,14.25-2c2.82,4.85,1.87,7.87-2.28,13.35S358.84,244.79,357.12,242.28Z"/><path class="cls-19" d="M377.72,377s.44,3.22.49,3.7,4.88-.29,4.88-.29l.39-3.83S378.32,376.59,377.72,377Z"/><path class="cls-34" d="M378.16,380.34a13.3,13.3,0,0,1-3,2.78c-1.48.85-3.8,1.18-4.68,2.05-.63.63-2.3,3.35,3.84,3.29s9.1.38,9.76-.66-1-7.69-1-7.69A16.93,16.93,0,0,1,378.16,380.34Z"/><path class="cls-19" d="M344.3,377s.44,3.22.49,3.7,4.88-.29,4.88-.29l.39-3.83S344.9,376.59,344.3,377Z"/><path class="cls-34" d="M344.74,380.34a13.29,13.29,0,0,1-3,2.78c-1.48.85-6.92,1.54-7.8,2.41-.63.63-1.68,3.17,7,2.93,6.14-.17,9.1.38,9.76-.66s-1-7.69-1-7.69A25.55,25.55,0,0,1,344.74,380.34Z"/><path class="cls-35" d="M376.09,296.95s2.47,7.69,2.15,14.32,1.28,13.88,1.94,20.8c.73,7.72,3.73,26,3.83,30.12s-.46,17.31-.46,17.31l-6,.14s-5-31.94-6.34-35.2-7.77-26.49-8-29.1S376.09,296.95,376.09,296.95Z"/><path class="cls-35" d="M351.24,296.15s-3.64,20.33-4.07,24.39-.72,19.63-.94,22.16-1.45,33.17-2.61,36.94h6.68s6.86-22.27,6.86-32.81,4.54-22.91,7.48-29.86,9.65-7.12,11.45-20C376.09,296.95,353.68,292.05,351.24,296.15Z"/><path class="cls-19" d="M359.54,244.35a5.81,5.81,0,0,1,0,3.76c-.75,1.56,9.63.63,9.63.63a11.17,11.17,0,0,1,.89-5.9C371.42,240.18,359.54,244.35,359.54,244.35Z"/><path class="cls-36" d="M376.57,298.62s-3.74,3.84-25.67-.6l.34-1.88,24.93.94Z"/><path class="cls-19" d="M358,248.62s-3.84.39-4.93.6-8.47-1.32-10-1.48-8-4.58-8.18-5.1-3.93-9.93-4.13-12-3.62-1-3.33.42c.55,2.62,1.25,9,1.64,10.84s1.53,6.51,2.16,7.06a45,45,0,0,0,12.12,6.85,48.33,48.33,0,0,1,10,4.65h28s10.9-15.59,11.14-17.94-7.62-18-9.18-19.92-3.83.64-3.83.64S384.16,237,384.78,239s-5.46,10.56-7.13,10.58-6-.52-7.86-.6a13.37,13.37,0,0,1-3.92-.91Z"/><path class="cls-37" d="M345.89,259a9.06,9.06,0,0,1,3.75,6.2,81.11,81.11,0,0,0,2.19,12.21c.63,2.11-.55,17.46-.7,18.55s21.69,3.7,25,1.1c0,0,.94-14.33,1.33-18.4s2.27-13.93,2.9-15.26,8.22-12,8.53-13.39c0,0-3.93-6.26-6.75-6.34,0,0-4.48,5.25-5.93,5.48s-10.4-1.4-10.41-1.42-1,1.33-6.17-.24c0,0-6.18.7-7.19.83-1.22.16-9.68-1.06-9.68-1.06s-3.4,5.73-2.8,8.63Z"/><path class="cls-19" d="M330.94,231.9s-.77-3.63.16-4.67c.53-.59,1.79-2.16,1.9-2.39s1.47-1,1.47-1.38-1.33-.84-2.48.23-1.87,1.3-2.33,1.18-1.12-4-1.18-4.9-.42-3.46-1-3.29-.57,1.27-.57,1.27-.69-1.9-1.15-1.53-.4,1.3-.4,1.3-.87-1.07-1.1-.29a2.69,2.69,0,0,0,0,1.47s-.89-.49-1,.72a18.42,18.42,0,0,0,.89,6c.63,1.27,3,4.59,3.29,5.88S330.94,231.9,330.94,231.9Z"/><path class="cls-19" d="M380.23,225.52s-2.61-4.38-3.5-4.78a15,15,0,0,1-3.24-1.4c-1.1-.78-2.54-1.43-2.47-1.7s1.37-.16,2.75.44,2,.31,2.12,0a8.07,8.07,0,0,0-1.15-3c-.42-.52-3.39-3.51-2.9-4s2.43,1.2,2.74,1.54c0,0-1.54-3.23-.94-3.39s1.72,1,1.72,1-.13-2.77,2.84,1.72c0,0-.63-1.49.29-1s1.8,3.29,2.09,4.7,1.59,5.9,2.7,7S380.23,225.52,380.23,225.52Z"/><path class="cls-38" d="M370.06,242.84a11.84,11.84,0,0,1-4.3-.89c-2.92-1-3.14-6.12-3.77-5.51a1.85,1.85,0,0,1-3-.35s1.43-1.88.77-2.78a7,7,0,0,0-1.74-1.56s2.06-9.91,11.41-5.39C380.4,231.63,370.06,242.84,370.06,242.84Z"/><path class="cls-39" d="M359.54,248.11l.33-1.43a76.06,76.06,0,0,1,9.23.35l.34,1.71S365.27,250.63,359.54,248.11Z"/><path class="cls-19" d="M361,235.18c.54-.9,2.55-1.51,2.78,1,.18,2-3.58,4.14-3.62,2.3A5.57,5.57,0,0,1,361,235.18Z"/><path class="cls-40" d="M330.8,231.07a5.94,5.94,0,0,0-3.2,1,2.15,2.15,0,0,0,.17,1.07,13.29,13.29,0,0,1,3.3-1S331,231.32,330.8,231.07Z"/><circle class="cls-38" cx="329.11" cy="231.97" r="0.93" transform="translate(-12.6 444.94) rotate(-67.11)"/><path class="cls-41" d="M275.35,155.05s3.08,5.22,4.38,6.07c1.77,1.16.66,2.33-.18,2.33s-5.12.31-6.06-.76-1.41-4.28-2.29-5.12-1.78-4.17.43-5C273.58,151.87,275.35,155.05,275.35,155.05Z"/><path class="cls-42" d="M274,152.75s3.53,6.11,4.13,7-1.14.9-2.23.47-3.82-4.81-4.21-5.61a3,3,0,0,1-.08-2Z"/><polygon class="cls-41" points="270.44 156.04 271.25 162.31 271.69 162.33 271.55 157.82 270.44 156.04"/><path class="cls-41" d="M244.81,155.05s3.08,5.22,4.38,6.07c1.77,1.16.66,2.33-.18,2.33s-5.12.31-6.06-.76-1.41-4.28-2.29-5.12-1.81-4.26.43-5C243.05,152,244.81,155.05,244.81,155.05Z"/><path class="cls-42" d="M243.66,152.77s3.34,6.1,4,7-1.15.9-2.23.47-3.82-4.81-4.21-5.61a3,3,0,0,1-.08-2Z"/><polygon class="cls-41" points="239.9 156.04 240.72 162.31 241.15 162.33 241.02 157.82 239.9 156.04"/><path class="cls-42" d="M231.15,107.55,259,120.24a5.36,5.36,0,0,1,3.46,4.46c1.09,10.78,9.15,27.88,9.15,27.88,2.59,1.26,2.39.17,2.39.17-1.63-5.23-3.62-26.8-4.32-35.48-.15-1.84-.24-3.09-.26-3.5s-.31-.63-.83-1c-3.82-3.1-19.56-9.52-19.56-9.52C237.23,102.91,231.15,107.55,231.15,107.55Z"/><path class="cls-42" d="M225.9,113c.86,7.53,11.61,6.67,11.61,6.67h13a81.36,81.36,0,0,0-4.75,14c-1.4,6.82-4.71,18.88-4.71,18.88s.22.41,2.57.18c0,0,10.23-20.39,14.14-25.51a34.61,34.61,0,0,0,3.67-10.66c.14-1.2.05-2.13-.39-2.51a32.71,32.71,0,0,0-2.88-2c-4.08-2.57-11.17-6.54-15.12-7.42-5.29-1.19-13.65-3.42-13.65-3.42A14.4,14.4,0,0,0,225.9,113Z"/><path class="cls-43" d="M234.77,55a12.14,12.14,0,0,1-1-7.65c1-3.94,4.61-7.87,10-6.07s9.69,6,6.48,10.78,2.91,7,1.35,9.27-1,4.68-.31,5.21S254,69,253.8,71.22s-10.39-6.55-10.39-6.55S237.88,53.55,234.77,55Z"/><path class="cls-44" d="M251.09,102.31s-.81,3.92-21.62-1C229.48,101.28,236.45,99,251.09,102.31Z"/><path class="cls-45" d="M229.24,102.38l-1,1.85,22.82.67c-1.2-4-.81-9.49-.6-13.63.26-5.06,3.05-8.58,2.75-13.69l3.27.52c-2.31-6.57-3.09-9.82-10.25-12.35a13.38,13.38,0,0,0-6.39-.78c-8.29.68-10.79.78-14.87,8.3,6.38,1,5.33,3.3,7.26,9.65.94,3.09,1.93,6.54,1.42,9.81S229.24,99.45,229.24,102.38Z"/><path class="cls-19" d="M242.47,67.34c-3.39-.64-2.67-2.53-2.67-2.53s.16-1.07.22-2.41c0-.34,0-.71,0-1.08a14.45,14.45,0,0,0-.09-1.67c-.28-2.28,6.16-.92,6.16-.92s-.37,4.61.52,6S245.87,68,242.47,67.34Z"/><path class="cls-19" d="M236,64.79s6.85,7.9,9.38,9.74c0,0,2.91-2.63,1.12-9.57C246.49,65,243.19,63.31,236,64.79Z"/><path class="cls-19" d="M236.19,45.77s-3.56,6.85,0,13.34,10.45-2.83,10.9-3.92,2.82-7.27-1.9-9.15S237.19,43.91,236.19,45.77Z"/><path class="cls-43" d="M237.37,48.2s-2.45,3.21-2.74,5.59A12.73,12.73,0,0,1,236.41,45c2.75-4.31,9.76-.21,10.7,1.52s3.69,3.24-.93,10.65C246.18,57.15,237.87,51.38,237.37,48.2Z"/><path class="cls-46" d="M243,59.79a6.64,6.64,0,0,1-3,2.6c0-.34,0-.71,0-1.08A5.76,5.76,0,0,0,243,59.79Z"/><path class="cls-19" d="M207.12,96.22s-1.69.75-2.49.41a7.48,7.48,0,0,0-2.43-.41c-.52,0-2.16-.58-2.13.05s2.66,1.09,3.2,1.29-1.61,1.38-1.81,1.91,2.22,4,3.59,3,2.11-2.94,2.39-3.07a10,10,0,0,0,1-.67Z"/><path class="cls-19" d="M201.71,99.16s-4,3.29-4,3.73.15.65.53.36l3.93-3.06s-4,4.69-4.11,5,.3.63.52.49,4.45-4.55,4.45-4.55-3.7,4.39-3.72,4.71a.43.43,0,0,0,.73.29l4-4.18s-2.47,3.37-2.32,3.66.41.56,1-.33S205,102.5,205,102.5Z"/><path class="cls-16" d="M249.18,119.67H237.51s-10.75.86-11.61-6.67a14.4,14.4,0,0,1,3.54-11.71s5.68,1.51,10.64,2.71a38.44,38.44,0,0,1,9-.78s21,6.95,20.39,10.6C269.43,113.82,260.63,109.11,249.18,119.67Z"/><polygon class="cls-47" points="241.59 106.63 263.84 106.3 252.6 112 241.59 106.63"/><path class="cls-45" d="M248.5,103.78a19,19,0,0,1-11.14.19l-.29-2.29,12.63.7Z"/><polygon class="cls-48" points="252.6 112 241.59 107.73 241.59 106.63 253.47 110.91 252.6 112"/><path class="cls-49" d="M248.42,104.84a1.1,1.1,0,0,0,1.53,1.09l1.29-.55a.92.92,0,0,0,.55-1c-.54-3.37-1.69-16.47,0-18.71a8.15,8.15,0,0,0,1.23-2.2c1.11,2.87,2.5,6.57,3.05,8.56l10.51,14,3.53.89a119.26,119.26,0,0,0-7.93-16.21c-.69-1.85-2.66-7.44-4.41-12.42l-2.66-7.6a3.56,3.56,0,0,0-1.54-1.89c-1.63-1-4.34-2.51-6.8-3.7h0L246.5,65h0c4.68,7.08,2.85,27.07,1.93,39.85Z"/><path class="cls-49" d="M231.05,65.57c-1.5.23-5.21,3.84-7.19,7.48-2.25,4.16-4.54,8.89-6.26,10.44-3.16,2.86-12,13-12.42,12.73a27.29,27.29,0,0,0,2.75,3.17c.16.07,14.54-12.38,15.91-14.28s4.81-9.35,5.86-9.18h0a56.22,56.22,0,0,1,2.56,7l.06.2a22.39,22.39,0,0,1,.3,9.3c-.34,2.59-2.27,6.83-3.44,8.89a1.4,1.4,0,0,0,0,1.08h0a.77.77,0,0,0,.38.45l4.22,1.56,1,.37a2.16,2.16,0,0,0,2.89-1.75c.94-7.22,2.12-14.59,3.07-17.37a26.31,26.31,0,0,0-1.62-21.34A78.51,78.51,0,0,0,231.05,65.57Z"/><polygon class="cls-50" points="252.6 112 259.22 93.93 280.56 94.28 274.25 110.93 252.6 112"/><ellipse class="cls-51" cx="267.67" cy="102.74" rx="2.64" ry="1.81" transform="translate(56.03 296.15) rotate(-63.42)"/><path class="cls-43" d="M243.56,52.59s1.37,2.13.1,4,.32,3.64.59,5.58-5.27,7.1.9,9.7,8.13-1.7,6.55-4.06-2.69-4.28-2.82-7.65S247.64,51.5,243.56,52.59Z"/><polygon class="cls-15" points="198.89 27.07 225.17 27.07 225.17 46.12 225.17 50.13 221.16 46.12 198.89 46.12 198.89 27.07"/></g></g></svg>