<svg xmlns="http://www.w3.org/2000/svg" xmlns:xlink="http://www.w3.org/1999/xlink" viewBox="0 0 661.49 395.4"><defs><style>.cls-1{fill:#e1e8f6;}.cls-1,.cls-10,.cls-11,.cls-12,.cls-13,.cls-14,.cls-15,.cls-16,.cls-17,.cls-19,.cls-2,.cls-22,.cls-23,.cls-24,.cls-25,.cls-26,.cls-27,.cls-28,.cls-29,.cls-3,.cls-30,.cls-31,.cls-32,.cls-33,.cls-35,.cls-38,.cls-39,.cls-4,.cls-41,.cls-42,.cls-6,.cls-8,.cls-9{fill-rule:evenodd;}.cls-2{fill:#b4c5e6;}.cls-3,.cls-7{fill:#fff;}.cls-4{fill:#9fb2d9;}.cls-12,.cls-5{fill:#00000f;}.cls-6{fill:url(#GradientFill_1);}.cls-8{fill:#101537;}.cls-9{fill:#b32720;}.cls-10{fill:#d64c47;}.cls-11,.cls-34{fill:#3b405f;}.cls-13{fill:#674834;}.cls-14,.cls-20{fill:#b56b41;}.cls-15,.cls-21{fill:#d58750;}.cls-16{fill:#ea5756;}.cls-17{fill:#db4141;}.cls-18{fill:#fffaf9;}.cls-19{fill:#131936;}.cls-22{fill:#050a25;}.cls-23{fill:#f5ac83;}.cls-24{fill:#f2d8cd;}.cls-25,.cls-40{fill:#dcdcee;}.cls-26,.cls-36{fill:#b5b6d3;}.cls-27{fill:#d0d0e6;}.cls-28{fill:#9295bc;}.cls-29{fill:#294d3c;}.cls-30{fill:#4a9075;}.cls-31{fill:#1b7154;}.cls-32{fill:#a6c86b;}.cls-33{fill:#5f9850;}.cls-35{fill:#c0cdea;}.cls-37{fill:#151d3d;}.cls-38{fill:#33385c;}.cls-39{fill:#484e78;}.cls-41{fill:#cdcde2;}.cls-42{fill:#ededf6;}</style><linearGradient id="GradientFill_1" x1="173.64" y1="131.39" x2="152.52" y2="119.92" gradientUnits="userSpaceOnUse"><stop offset="0" stop-color="#e1e8f6"/><stop offset="1" stop-color="#fff"/></linearGradient></defs><title>Asset 2</title><g id="Layer_2" data-name="Layer 2"><g id="OBJECTS"><path class="cls-1" d="M512.93,275.85h56.74a55.68,55.68,0,0,1,55.52,55.52h0a55.68,55.68,0,0,1-55.52,55.52H89.91C40.46,386.89,0,346.44,0,297H0c0-49.45,40.46-89.91,89.91-89.91h0a38.13,38.13,0,0,0,38-38h0a38.13,38.13,0,0,0-38-38H44.16A39.64,39.64,0,0,1,4.63,91.53h0A39.64,39.64,0,0,1,44.16,52H102a15.43,15.43,0,0,0,15.39-15.39h0A15.43,15.43,0,0,0,102,21.24H91.81A10.65,10.65,0,0,1,81.19,10.62h0A10.65,10.65,0,0,1,91.81,0h66.92C172.82,0,174.39,16.65,210,16.65h82.55A13.9,13.9,0,0,1,306.4,30.51h0a13.9,13.9,0,0,1-13.86,13.86H279.23a20.14,20.14,0,0,0-20.08,20.08h0a20.14,20.14,0,0,0,20.08,20.08h40c54.08,0,61.72,14.13,71.19,42.24s58.66,30.37,58.66,30.37h67.26a30.35,30.35,0,0,1,30.26,30.26h0a30.35,30.35,0,0,1-30.26,30.26h-3.46a29.19,29.19,0,0,0-29.1,29.1h0a29.19,29.19,0,0,0,29.1,29.1ZM62,21.24A10.62,10.62,0,1,0,51.39,10.62,10.62,10.62,0,0,0,62,21.24Z"/><path class="cls-2" d="M461.62,387.48c5.75-8.34,17.8-22.2,40.84-36,36.44-21.83,64-50.77,51.92-67.89-11.91-16.8-65.27,15.65-109.59,96.76A97.19,97.19,0,0,0,461.62,387.48Z"/><path class="cls-3" d="M454.5,380.07a22.3,22.3,0,0,1,7.19,1,.46.46,0,1,0,.26-.89,24.1,24.1,0,0,0-6.9-1q1.18-2,2.36-4c1.61,0,6.8-.14,8.75,0a.46.46,0,1,0,.05-.92c-1.79-.1-6.19,0-8.23,0q2.22-3.63,4.43-7.06a107.11,107.11,0,0,1,11.73.89.46.46,0,1,0,.12-.92,109.19,109.19,0,0,0-11.26-.88q2.24-3.45,4.47-6.7a152.45,152.45,0,0,1,16.74,1.26.46.46,0,0,0,.13-.92,154.15,154.15,0,0,0-16.24-1.26q2.94-4.25,5.86-8.17c2.23-.1,11.48-.33,18.43,1.89a.46.46,0,0,0,.29-.88c-6.47-2.08-14.87-2.06-18-2q3.59-4.79,7.12-9.1c3,.17,15.29,1.1,21,5.16a.46.46,0,1,0,.53-.76c-5.56-3.94-16.88-5-20.82-5.28q3.75-4.55,7.41-8.57a96.26,96.26,0,0,1,20.25,7.15.46.46,0,0,0,.42-.83,97.16,97.16,0,0,0-20-7.11q2.17-2.37,4.3-4.56a104.33,104.33,0,0,1,23.16,8.3.46.46,0,1,0,.4-.83,107.55,107.55,0,0,0-22.8-8.25c3.37-3.44,6.65-6.58,9.83-9.41,2.69.89,16.31,5.5,23.47,10.05a.46.46,0,0,0,.64-.14.46.46,0,0,0-.14-.64c-6.88-4.37-19.55-8.77-23.16-10q2.78-2.45,5.44-4.62a136.25,136.25,0,0,1,22.49,10.08.46.46,0,0,0,.46-.8,136.69,136.69,0,0,0-22.1-10c4.15-3.34,8.05-6.16,11.65-8.54,2.28.54,12.56,3.11,20.28,7.59a.46.46,0,1,0,.47-.8c-7.1-4.12-16.31-6.64-19.68-7.49q2.23-1.45,4.3-2.67A71.59,71.59,0,0,1,547.15,302a.46.46,0,1,0,.33-.86A75.52,75.52,0,0,0,531,296.74c11.09-6.4,18-8,18-8a.69.69,0,1,0-.34-1.35,53.46,53.46,0,0,0-8.33,3.05,41.48,41.48,0,0,1,4-4.66.46.46,0,1,0-.48-.79c-.84.51-4.22,4.8-5.38,6.29-2.13,1-4.56,2.23-7.25,3.76l4.57-9.09a.46.46,0,0,0-.82-.41l-5.2,10.34q-2.77,1.62-5.85,3.63l4.93-10.77a.46.46,0,1,0-.84-.39l-5.55,12.13c-3.07,2.07-6.35,4.44-9.8,7.18l4.27-11.16a.46.46,0,0,0-.87-.33l-4.84,12.65c-1.57,1.28-3.18,2.62-4.82,4L510,302.77a.46.46,0,0,0-.87-.32L505,314.09q-4.55,4-9.38,8.9l2.73-9.82a.46.46,0,0,0-.89-.25l-3.18,11.43q-1.91,2-3.85,4.07l1.53-7.5a.46.46,0,0,0-.91-.18l-1.83,9q-3.61,4-7.32,8.42l1.43-8.36a.46.46,0,1,0-.91-.15l-1.69,9.94q-3.24,4-6.54,8.32l.93-7.43a.46.46,0,0,0-.92-.11l-1.13,9q-2.87,3.85-5.77,8l0-6.7a.46.46,0,1,0-.92,0l-.06,8.06q-2.09,3-4.2,6.27l-.72-5.71a.46.46,0,1,0-.92.12l.86,6.8q-1.93,3-3.87,6.13l-.67-3.69a.46.46,0,0,0-.91.17l.86,4.71q-1.44,2.36-2.89,4.82l-1.53-3a.46.46,0,1,0-.82.42l1.8,3.56q-1.18,2-2.35,4.07l1.27.57Q453.37,382,454.5,380.07Z"/><path class="cls-4" d="M455,392.2c6.16-3.89,17-9.11,33.43-11.45,27.85-4,52.7-15.38,50.82-30.61-1.81-14.66-41.29-9-90.41,30.77L455,392.16Z"/><path class="cls-2" d="M531.74,352.42a1,1,0,0,0,0-1.91,67.81,67.81,0,0,0-8.44.71l4.54-3.07a.64.64,0,0,0-.71-1.06l-6.75,4.56c-2.47.41-5.28,1-8.38,1.69l4.77-4.56a.64.64,0,1,0-.88-.92L509.49,354c-3.22.84-6.7,1.88-10.4,3.18l4-4.11a.64.64,0,1,0-.91-.89l-5.83,6c-3.86,1.45-7.92,3.17-12.13,5.23l3.38-4.34a.64.64,0,0,0-1-.78l-5,6.45c-3.94,2-8,4.34-12.11,7l1.38-3a.64.64,0,1,0-1.15-.54L467.44,373c-3.12,2.08-6.27,4.34-9.43,6.82l1.27-3a.64.64,0,0,0-1.17-.5l-2.18,5.16q-2.31,1.88-4.62,3.91l.94,1.72q2.31-2,4.62-3.93c1.57.1,5.34.42,6.93,1.25a.64.64,0,1,0,.59-1.12,19.83,19.83,0,0,0-6.08-1.29q1.83-1.45,3.65-2.82a27,27,0,0,1,7.87,2.44.64.64,0,1,0,.63-1.11,25.87,25.87,0,0,0-7.1-2.36q3.76-2.75,7.47-5.11c2.12.88,8.83,3.73,11.46,5.89a.64.64,0,0,0,.81-1c-2.47-2-8.23-4.59-11-5.74q4-2.48,7.84-4.56c2.12.81,9,3.61,13.55,7.21a.64.64,0,1,0,.79-1c-4.09-3.24-10-5.84-12.87-7q1.91-1,3.79-1.92a61.6,61.6,0,0,1,16.51,8.27.64.64,0,1,0,.75-1,63,63,0,0,0-15.62-8,136.91,136.91,0,0,1,13-5.32c2.43,1.5,11.85,7.42,16,11.34a.64.64,0,1,0,.88-.92c-3.81-3.62-12-8.86-15.29-11,3.06-1,6-1.88,8.67-2.58,2.19,1.67,10.25,7.85,12.13,9.46a.64.64,0,1,0,.83-1c-1.71-1.48-8.47-6.67-11.38-8.9,3.54-.87,6.72-1.49,9.45-1.93,2,1.71,6.68,5.83,7.79,6.93a.64.64,0,1,0,.9-.9c-1-1-4.79-4.32-7-6.27A68.83,68.83,0,0,1,531.74,352.42Z"/><path class="cls-4" d="M363.73,307.35q-.61-8.32-.57-16.16t.7-15.36c1.65-18.44,6.12-34.35,12.8-47.94a108.71,108.71,0,0,1,28.58-36.24,123.69,123.69,0,0,1,36-20.42,162.29,162.29,0,0,1,44.35-9.33c5.15-.38,10.34-.54,15.55-.49s10.53.31,15.74.77h0a2.16,2.16,0,0,1,2,2.33l0,.15c-.21,2-4.9,45.6-26.13,85-21.47,39.82-59.78,75.35-127.31,59.7a2.15,2.15,0,0,1-1.66-2ZM516.47,165.61A226.87,226.87,0,0,0,489,179c5.68,1,18.56,3.4,24.34,5.25,1.92-9.25,2.82-16,3.13-18.68Zm-3.56,20.71h0c-6.68-2.18-24.1-5.22-26.7-5.67-7.25,4.2-15.41,9.33-24.08,15.48L507.31,208c2.41-8,4.23-15.34,5.6-21.7ZM506.7,210l-46.77-12.3a311.44,311.44,0,0,0-25.09,20.17c9.27,2.83,53.62,16.42,61.13,20.22A231,231,0,0,0,506.7,210Zm-11.6,29.95c-7.56-3.87-56.51-18.79-62-20.47-6.84,6.2-13.72,13-20.47,20.45l69.66,22.24a1,1,0,0,1,.24.11c3-4.45,5.74-9,8.25-13.69q2.32-4.3,4.37-8.64ZM481.29,264,411.06,241.6c-5.25,5.88-10.43,12.15-15.45,18.82,11.35,3.84,69.49,21.93,69.67,22a1,1,0,0,1,.41.25A128.32,128.32,0,0,0,481.29,264Zm-17.2,20.17c-6.16-1.92-60.58-18.86-69.77-22q-6.45,8.72-12.49,18.34c13.74,6.78,59.91,18.77,60,18.8a1,1,0,0,1,.63.48,100.08,100.08,0,0,0,21.59-15.59ZM440.15,301c-7.4-1.95-46.9-12.48-59.42-18.73q-3.84,6.25-7.45,12.89c5.27,2.08,28.89,11.14,44.15,12.71a1,1,0,0,1,.89.75A93.06,93.06,0,0,0,440.15,301Zm-26.33,8.47c-15.63-2.44-37-10.71-41.51-12.49q-2.72,5.11-5.28,10.45c17.55,3.93,33.07,4.33,46.8,2Zm-48-4.29q2.38-4.89,4.89-9.58c-2.11-5.85-3.67-16-4.43-21.65-.07.7-.14,1.4-.2,2.1q-.65,7.3-.69,15.16,0,6.75.43,14Zm1.09-36.54a1,1,0,0,1,.9.91s1.64,14.92,4.25,23.56q3.48-6.36,7.19-12.35a201.59,201.59,0,0,1-6.81-36.53,138.2,138.2,0,0,0-5.53,24.41Zm6.7-27.83a1,1,0,0,1,.69.9,197.33,197.33,0,0,0,6.41,36.69q5.83-9.25,12.08-17.64c-1.21-3.58-8.25-24.94-9.23-40.81q-2.62,4.29-4.91,8.94a116.15,116.15,0,0,0-5,11.92Zm11.46-23.24a1,1,0,0,1,.48.83c.55,14.36,6.74,34.24,8.75,40.35,5-6.56,10.05-12.72,15.23-18.51-9.25-19.61-10.65-35.59-10.86-39.56a105.66,105.66,0,0,0-13.6,16.89ZM400.4,199a1,1,0,0,1,.3.71s.19,17,10.33,38.9c6.78-7.46,13.68-14.29,20.54-20.52-4.15-9.35-8.16-32.63-8.7-35.82a114.6,114.6,0,0,0-16.21,11.15Q403.43,196,400.4,199Zm24.32-17.76a1.06,1.06,0,0,1,.12.34c0,.07,4.1,24.88,8.35,35.06a314.2,314.2,0,0,1,25.4-20.46c-3-12-2.93-25-2.9-27.07q-7,1.82-13.66,4.29a129.94,129.94,0,0,0-17.31,7.85Zm33-12.66a1,1,0,0,1,0,.27,115.46,115.46,0,0,0,2.64,26c8.83-6.29,17.14-11.53,24.53-15.82a74.49,74.49,0,0,1-.29-14.78,167.74,167.74,0,0,0-26.9,4.3Zm29-4.46a1.11,1.11,0,0,1,0,.16,73.39,73.39,0,0,0,.16,13.66,241.74,241.74,0,0,1,27.54-13.67c-4.4-.34-8.83-.53-13.26-.57Q493.94,163.59,486.69,164.08Z"/><rect class="cls-5" x="42.72" y="387.58" width="574.46" height="7.82" rx="3.91" ry="3.91"/><rect class="cls-5" x="21.33" y="387.58" width="15.8" height="7.82" rx="3.91" ry="3.91"/><rect class="cls-5" x="630.04" y="387.58" width="31.45" height="7.82" rx="3.91" ry="3.91"/><polygon class="cls-6" points="141.95 127.22 157.33 168.07 192.01 144.4 201.78 106.97 197.05 98.57 157.91 102.31 145.54 112.21 141.95 127.22"/><circle class="cls-7" cx="149.86" cy="115.02" r="5.17"/><path class="cls-8" d="M101.36,134.74,130.94,101a.54.54,0,0,1,.75-.05l1.76,1.55a.54.54,0,0,1,.05.75L103.92,137a.53.53,0,0,1-.75.05l-1.76-1.55a.53.53,0,0,1-.05-.75Zm30-32.61L102.51,135l1,.84L132.35,103Z"/><circle class="cls-5" cx="131.45" cy="103.03" r="2.98" transform="translate(-11.93 17.37) rotate(-7.23)"/><path class="cls-8" d="M101.34,134.9l20.8,39.74a.53.53,0,0,0,.72.23l2.08-1.09a.53.53,0,0,0,.23-.72l-20.8-39.74a.54.54,0,0,0-.72-.23l-2.08,1.09a.53.53,0,0,0-.23.72Zm21.5,38.77-20.31-38.8,1.13-.59L124,173.08Z"/><circle class="cls-5" cx="123.11" cy="172.81" r="2.98" transform="translate(-82.22 226.28) rotate(-69.13)"/><circle class="cls-5" cx="103.41" cy="134.98" r="2.98" transform="translate(-16.19 14.11) rotate(-7.24)"/><path class="cls-9" d="M121.3,183.9h38.25a5.56,5.56,0,0,0,5.54-5.54h0a5.56,5.56,0,0,0-5.54-5.54H121.3a5.56,5.56,0,0,0-5.54,5.54h0A5.56,5.56,0,0,0,121.3,183.9Z"/><path class="cls-10" d="M95.87,183.9h38.25a5.56,5.56,0,0,0,5.54-5.54h0a5.56,5.56,0,0,0-5.54-5.54H95.87a5.56,5.56,0,0,0-5.54,5.54h0A5.56,5.56,0,0,0,95.87,183.9Z"/><path class="cls-10" d="M157.78,102.81l-15.83,24.42a.78.78,0,0,1-1.38-.14l-9.15-23.28a.78.78,0,0,1,.69-1.06l25-1.14a.78.78,0,0,1,.69,1.2Z"/><polygon class="cls-3" points="140.14 126 138.81 122.6 152.28 101.82 155.93 101.66 140.14 126"/><path class="cls-10" d="M134,100.09l6.52,4.23a3.9,3.9,0,0,1,1.15,5.37h0a3.9,3.9,0,0,1-5.37,1.15l-6.52-4.23a3.9,3.9,0,0,1-1.15-5.37h0A3.9,3.9,0,0,1,134,100.09Z"/><circle class="cls-5" cx="130.26" cy="103.72" r="1.24" transform="translate(-27.64 156.57) rotate(-57.04)"/><path class="cls-3" d="M169.33,128.62a1.08,1.08,0,1,0-2.16,0v2.54h-2.54a1.08,1.08,0,1,0,0,2.16h2.54v2.54a1.08,1.08,0,1,0,2.16,0v-2.54h2.54a1.08,1.08,0,1,0,0-2.16h-2.54Z"/><path class="cls-3" d="M154.22,124a1.08,1.08,0,0,0-2.16,0v2.54h-2.54a1.08,1.08,0,0,0,0,2.16h2.54v2.54a1.08,1.08,0,0,0,2.16,0v-2.54h2.54a1.08,1.08,0,0,0,0-2.16h-2.54Z"/><path class="cls-3" d="M190.27,107a1.08,1.08,0,1,0-2.16,0v2.54h-2.54a1.08,1.08,0,1,0,0,2.16h2.54v2.54a1.08,1.08,0,1,0,2.16,0v-2.54h2.54a1.08,1.08,0,0,0,0-2.16h-2.54Z"/><path class="cls-3" d="M169.8,111.63a.47.47,0,1,0-.95,0v1.11h-1.12a.47.47,0,0,0,0,.95h1.12v1.11a.47.47,0,1,0,.95,0V113.7h1.12a.47.47,0,0,0,0-.95H169.8Z"/><path class="cls-3" d="M158.86,136.78a.47.47,0,1,0-.95,0v1.11H156.8a.47.47,0,0,0,0,.95h1.12V140a.47.47,0,1,0,.95,0v-1.11H160a.47.47,0,0,0,0-.95h-1.12Z"/><path class="cls-3" d="M181.47,124.56a.47.47,0,1,0-.95,0v1.11h-1.11a.47.47,0,1,0,0,.95h1.11v1.11a.47.47,0,0,0,.95,0v-1.11h1.11a.47.47,0,0,0,0-.95h-1.11Z"/><path class="cls-3" d="M158.1,114.32a.47.47,0,1,0-.95,0v1.11H156a.47.47,0,0,0,0,.95h1.11v1.11a.47.47,0,1,0,.95,0v-1.11h1.11a.47.47,0,0,0,0-.95H158.1Z"/><path class="cls-3" d="M179.34,103a.47.47,0,1,0-.95,0v1.11h-1.12a.47.47,0,0,0,0,.95h1.12v1.11a.47.47,0,1,0,.95,0v-1.11h1.11a.47.47,0,0,0,0-.95h-1.11Z"/><path class="cls-3" d="M198.89,127.46a.47.47,0,1,0-.95,0v1.11h-1.11a.47.47,0,1,0,0,.95h1.11v1.11a.47.47,0,0,0,.95,0v-1.11H200a.47.47,0,0,0,0-.95h-1.12Z"/><path class="cls-3" d="M172.46,155a.47.47,0,1,0-.95,0v1.11H170.4a.47.47,0,0,0,0,.95h1.11v1.11a.47.47,0,1,0,.95,0V157h1.11a.47.47,0,0,0,0-.95h-1.11Z"/><path class="cls-3" d="M192,143.28a.47.47,0,0,0-.95,0v1.12h-1.11a.47.47,0,1,0,0,.95h1.11v1.11a.47.47,0,1,0,.95,0v-1.11h1.12a.47.47,0,1,0,0-.95H192Z"/><path class="cls-11" d="M446.07,195.91a5.72,5.72,0,0,0-11.41.76c.83,12.1,2.15,25.55,4.09,40.47H335c2.05-14.84,3.69-28.21,5-40.25a5.71,5.71,0,1,0-11.36-1.21c-2.55,23.77-6.45,52.76-12.26,88-4.95,30-11.27,64.43-19.31,104h11.65c7.88-38.84,14.07-72.67,18.93-102.12q3.25-19.72,5.74-36.89h107q2.49,17.25,6.09,37c5.41,29.48,12.84,63.28,22.85,102h11.79c-10.32-39.64-17.93-74.11-23.42-104.06q-4.06-22.13-6.65-41a5.93,5.93,0,0,0-.11-.83C448.54,224.6,447,209.41,446.07,195.91Z"/><path class="cls-12" d="M209.68,251.66a3,3,0,0,0-6.05,0V387.6h6.05V347.38h46.4V387.6h6.05V251.66a3,3,0,1,0-6.05,0v78.59h-46.4V251.66Zm46.4,89.67h-46.4V334h46.4Z"/><path class="cls-13" d="M157.22,251.66a3,3,0,1,0-6.05,0V387.6h6.05V347.38h46.4V387.6h6.05V251.66a3,3,0,0,0-6.05,0v78.59h-46.4V251.66Zm46.4,89.67h-46.4V334h46.4Z"/><path class="cls-12" d="M267.79,251.66H149.33a3.82,3.82,0,0,0-3.8,3.8h0a3.81,3.81,0,0,0,3.8,3.8H267.79a3.81,3.81,0,0,0,3.8-3.8h0A3.82,3.82,0,0,0,267.79,251.66Z"/><path class="cls-14" d="M272.1,247.85H144.29a3.82,3.82,0,0,0-3.8,3.8h0a3.82,3.82,0,0,0,3.8,3.81H272.1a3.82,3.82,0,0,0,3.8-3.81h0A3.81,3.81,0,0,0,272.1,247.85Z"/><path class="cls-15" d="M194.64,247.85H144.29a3.82,3.82,0,0,0-3.8,3.8h0a3.82,3.82,0,0,0,3.8,3.81h50.36a3.82,3.82,0,0,0,3.8-3.81h0A3.81,3.81,0,0,0,194.64,247.85Z"/><path class="cls-10" d="M268.62,149.14c11,2.71,33.14,7.13,40.17,16.17,4.6,5.9,5.24,13-2.37,13H267.78Z"/><path class="cls-10" d="M190.68,197.72l-14.85,13s-8.57-23.65-.1-44.32,40.63-22.24,53.89-23.5,30.19,35.46,30.19,35.46Z"/><path class="cls-12" d="M245.13,214.31s28.22,6.41,31.78,7.25,13.16,10.43,14.86,19.67,17.32,126.51,17.32,126.51-4,7-4.56,7.11-8.18-3.5-8.18-3.5S269.16,271.94,266,263.15s-2.32-15.29-11.93-15.29H225.21l-7.48-25.44,3-2.93c-3.27.16-5.82.18-6.25-.08-1.36-.84-22.81-8.68-22.81-8.68s15.38-4.61,16.74-5.13,23.49-2.35,23.49-2.35.05,6.07,1.15,7.38a7.44,7.44,0,0,0,3.45,1.85h0Z"/><path class="cls-10" d="M177.55,184.56c-.23,8-.49,16.37-1.77,20.75a18.32,18.32,0,0,1,0,5.4l-.21.58c.17.64.33,1,.33,1,3.54,2.71,7.29,2.81,11.61,4.44l0-.58-.18-.76L200,221.52c4.26-.44,31.36-2.19,38.13-8.72-.6-6.38,26.47-24.26,33.9-26Z"/><path class="cls-16" d="M305.88,369.68a3.48,3.48,0,0,1,4.13-1.89c2.93.81,20.3,10.37,23,11.55s5.57,5.68,3.43,8.26H295.15c-2.44-1.46-4.79-6.53-2.27-15.34S294.78,372.71,305.88,369.68Z"/><path class="cls-17" d="M305.88,369.68a3.48,3.48,0,0,1,4.13-1.89c1.82.5,9.24,4.4,15.24,7.55-1.76,1.32-5.49,2.47-6.35,2.29C317.83,377.42,305.88,369.68,305.88,369.68Z"/><rect class="cls-18" x="291.27" y="382.91" width="47.07" height="4.67" rx="1.21" ry="1.21"/><path class="cls-19" d="M184.37,247.8c-16.22,0-16.87-28.33-8.54-37.09A18.26,18.26,0,0,0,186.69,214c11-.12,36.83-6.29,44.72,4.24s10.77,28.19,6.2,53.88-15.85,99.56-15.85,99.56l-13-1.12s1.93-104.2,2.13-109.74-2.72-12.94-8.69-12.94S184.37,247.8,184.37,247.8Z"/><path class="cls-16" d="M219.09,370.47s-4.92-6.12-10.93-1.25a8.89,8.89,0,0,0-4.51,4.42c-1.23,3.1-3.55,4.5-4,7.89s.55,6,4.85,6h7c3.08,0,7.65.51,9.22-3.61s0-7.89.55-10S219.09,370.47,219.09,370.47Z"/><path class="cls-17" d="M219.09,370.47s-4.92-6.12-10.93-1.25a8.77,8.77,0,0,0-1.44.8c-.35,2.68-.64,5.54-.38,6.27.52,1.46,8.29,1.15,9.39.63.82-.39,2.68-4.35,3.57-6.34Z"/><rect class="cls-18" x="198.94" y="382.91" width="22.8" height="4.67" rx="1.21" ry="1.21"/><path class="cls-11" d="M254.16,216.36c-.42.46-.84,1-1.25,1.49a22.31,22.31,0,0,0-4.59,7.79.39.39,0,0,0,.75.25c.13-.4.28-.79.43-1.18a.39.39,0,0,0,.66-.14,21,21,0,0,1,3.35-6.22c.58-.65,1.16-1.23,1.71-1.74l-1.07-.24Zm2.32.53,1.36.31a24.65,24.65,0,0,0-2,2.18,21,21,0,0,0-3.35,6.21.39.39,0,0,1-.4.27l-.14.39a.39.39,0,0,1-.7.1l0,.07a.39.39,0,1,1-.75-.25,23,23,0,0,1,6-9.28Zm1.71.39,1.42.32a23.38,23.38,0,0,0-5.92,7.63c-.17.41-.33.83-.47,1.26a.39.39,0,0,1-.15.2c-.09.25-.18.5-.27.75a.39.39,0,1,1-.75-.25,20.52,20.52,0,0,1,.91-2.28,23.26,23.26,0,0,1,5.22-7.64Zm1.8.41,1.05.24a24.75,24.75,0,0,0-3.3,3.49,20.82,20.82,0,0,0-3,5.76.39.39,0,0,1-.27.26l-.07.2a.39.39,0,1,1-.75-.25A21.76,21.76,0,0,1,257.1,221a25.1,25.1,0,0,1,2.88-3.27Zm2.68.61a23.52,23.52,0,0,0-7.24,10.36.39.39,0,0,0,.75.25,22.73,22.73,0,0,1,7-10,25.75,25.75,0,0,0-2.92,3.18,21.87,21.87,0,0,0-3.65,6.67.39.39,0,0,0,.25.5l.07,0h0l-.09.28h0a.39.39,0,0,0,.75.25l.12-.36h0v0l.12-.33v0q.13-.35.28-.7h0l.15-.34h0l.15-.33h0l.15-.32h0l.16-.31,0,0,.15-.28,0-.07.14-.25,0-.06.14-.25,0-.08.13-.22.05-.09.13-.21.07-.12.11-.18.07-.11.12-.18.08-.11.11-.17.09-.13.09-.13h0a21.07,21.07,0,0,0-2.19,4.61.39.39,0,0,0,.25.5h0c-.08.23-.16.45-.24.69a.39.39,0,1,0,.75.25l.07-.19a.4.4,0,0,0,.27-.26c.11-.31.22-.62.33-.93a.39.39,0,0,0,.76.22,22.55,22.55,0,0,1,6.66-9.72l.17-.13-1.17-.27-.42.35.41-.35-3.38-.77Zm4.63,1.05a23.36,23.36,0,0,0-6.89,10.06.39.39,0,0,0,.75.25l.09-.27a.38.38,0,0,0,.24.23.39.39,0,0,0,.5-.25,22.54,22.54,0,0,1,6.65-9.71l-1.34-.3Zm1.68.38,3.34.76A23,23,0,0,0,264.68,231a.39.39,0,0,1-.5.25.39.39,0,0,0-.61-.07.39.39,0,0,1-.25-.5,22.58,22.58,0,0,1,5.18-8.42,22,22,0,0,0-5.41,8.56.39.39,0,0,1-.75-.25l0-.1a.39.39,0,0,1-.31,0,.39.39,0,0,1-.25-.5A23.47,23.47,0,0,1,269,219.73Zm3.56.81,1,.23a23.11,23.11,0,0,0-8,10.82.39.39,0,1,1-.75-.25A23.74,23.74,0,0,1,272.52,220.55Z"/><path class="cls-11" d="M233,299.73a22,22,0,0,0-3.53-.59,22.33,22.33,0,0,0-9.5.5.59.59,0,0,0-.41.54.32.32,0,0,0,.43.31q.68-.18,1.34-.32a.52.52,0,0,0,0,.22.32.32,0,0,0,.43.31,21.66,21.66,0,0,1,7.48-.69,21,21,0,0,1,3.62.94l.2-1.22Zm-.39,2.41-.22,1.35a21.41,21.41,0,0,0-3.46-.73,21.7,21.7,0,0,0-7.47.7.32.32,0,0,1-.41-.2l-.45.11a.32.32,0,0,1-.43-.31.52.52,0,0,1,.08-.29l-.08,0a.32.32,0,0,1-.43-.31.58.58,0,0,1,.41-.54,22.19,22.19,0,0,1,12.44.19Zm-.27,1.68a22.14,22.14,0,0,0-10-.29,23.74,23.74,0,0,0-2.63.55.58.58,0,0,0-.41.54.32.32,0,0,0,.43.31l.85-.21a.36.36,0,0,0,.26,0c.49-.13,1-.24,1.44-.34a21.29,21.29,0,0,1,9.84.84l.23-1.42Zm-.29,1.8-.17,1a21.2,21.2,0,0,0-4.33-.82,21.72,21.72,0,0,0-6.89.74.33.33,0,0,1-.36-.1l-.22.06a.32.32,0,0,1-.43-.31.58.58,0,0,1,.41-.54,22.43,22.43,0,0,1,7.73-.72,22.09,22.09,0,0,1,4.25.66Zm-.42,2.63-.15.93a21.38,21.38,0,0,0-12.05-.2.32.32,0,0,1-.43-.31.58.58,0,0,1,.41-.54,22.21,22.21,0,0,1,12.21.12Zm-.15,1a22,22,0,0,0-3.67-.62,22.4,22.4,0,0,0-8,.7.58.58,0,0,0-.41.54.33.33,0,0,0,0,.08h0l-.31.08h0a.58.58,0,0,0-.41.54.32.32,0,0,0,.43.31l.41-.11h0l.38-.09h0l.8-.17h0l.39-.07h0l.38-.06h0l.38-.05h0l.37,0h0l.33,0h.09l.3,0h.08l.3,0h2.16a22.73,22.73,0,0,0-5.44.79.58.58,0,0,0-.41.54h0l-.78.2a.58.58,0,0,0-.41.54.32.32,0,0,0,.43.31l.22-.05a.33.33,0,0,0,.36.1l1.05-.26a.58.58,0,0,0-.38.53.32.32,0,0,0,.43.31,21.45,21.45,0,0,1,10.26-.28l.57-3.6Zm-.59,3.71-.22,1.36a21.54,21.54,0,0,0-9.65.4.32.32,0,0,1-.43-.31.55.55,0,0,1,.15-.37l-.31.08a.32.32,0,0,1-.43-.31.58.58,0,0,1,.41-.54,22.24,22.24,0,0,1,10.48-.32Zm-.26,1.67a22.3,22.3,0,0,0-10.32.35.58.58,0,0,0-.41.54.32.32,0,0,0,.14.28l-.12,0a.59.59,0,0,0-.41.54.32.32,0,0,0,.43.31,21.47,21.47,0,0,1,10.41-.25l.28-1.8Zm-.29,1.81-.23,1.46a21.49,21.49,0,0,0-9.8.37.32.32,0,0,1-.43-.31.53.53,0,0,1,.09-.3.31.31,0,0,1-.23-.32.58.58,0,0,1,.41-.54,22.27,22.27,0,0,1,10.19-.38Zm-.27,1.7a22.28,22.28,0,0,0-10.07.4.58.58,0,0,0-.41.54.32.32,0,0,0,.43.31,21.52,21.52,0,0,1,9.91-.35Z"/><path class="cls-11" d="M292.91,248.73a21.84,21.84,0,0,0-5.49-.16,22.32,22.32,0,0,0-9.25,2.19.58.58,0,0,0-.31.61.32.32,0,0,0,.48.23q.64-.3,1.26-.55a.5.5,0,0,0,0,.23.32.32,0,0,0,.48.23,21.71,21.71,0,0,1,7.23-2,20.15,20.15,0,0,1,5.83.75l-.21-1.49Zm.38,2.62.2,1.38a20.73,20.73,0,0,0-5.94-.51,21.65,21.65,0,0,0-7.22,2,.32.32,0,0,1-.44-.13l-.42.19a.32.32,0,0,1-.48-.23.53.53,0,0,1,0-.3l-.07,0a.32.32,0,0,1-.48-.23.58.58,0,0,1,.31-.6,22,22,0,0,1,14.5-1.64Zm.23,1.63a22,22,0,0,0-12.33,1.18,22.84,22.84,0,0,0-2.48,1,.58.58,0,0,0-.31.6.32.32,0,0,0,.48.23l.8-.36a.36.36,0,0,0,.26,0q.69-.33,1.36-.59a21,21,0,0,1,12.47-.37l-.24-1.68Zm.26,1.85a21.85,21.85,0,0,0-7-.24,22.41,22.41,0,0,0-7.48,2.09.58.58,0,0,0-.31.6.32.32,0,0,0,.48.23l.21-.1a.33.33,0,0,0,.37,0,21.67,21.67,0,0,1,6.64-2,20.7,20.7,0,0,1,7.21.54l-.17-1.21Zm.4,2.86.28,2c-.32-.09-.71-.18-1.15-.27h.3l.11,0h0l.1,0h.64l.19,1.37a19.32,19.32,0,0,0-2.08-.39,19.35,19.35,0,0,1,2.08.41l.35,2.51a21.34,21.34,0,0,0-13.11,1.77.32.32,0,0,1-.48-.23.55.55,0,0,1,.08-.39l-.29.13a.32.32,0,0,1-.48-.23.58.58,0,0,1,.31-.6,22.15,22.15,0,0,1,13.06-1.92l-.84-.21a21.39,21.39,0,0,0-12,1.94.32.32,0,0,1-.48-.23A.59.59,0,0,1,281,263l-1,.44a.33.33,0,0,1-.37,0l-.2.09a.32.32,0,0,1-.48-.23.58.58,0,0,1,.31-.6l.73-.33h0a.58.58,0,0,1,.31-.6,22.69,22.69,0,0,1,5.21-1.75h0l-.17,0-.17,0-.21,0-.14,0-.22,0-.14,0-.22,0-.14,0-.25.05-.11,0-.26.06-.09,0-.29.07-.08,0-.29.08-.08,0-.32.09h0l-.36.11h0l-.36.12h0l-.36.13h0l-.38.14h0l-.76.31,0,0-.36.16h0l-.38.18a.32.32,0,0,1-.48-.23.58.58,0,0,1,.31-.6h0l.29-.14h0l0-.08a.58.58,0,0,1,.31-.6,22.43,22.43,0,0,1,7.78-2.12,22.17,22.17,0,0,1,4.32,0A21.39,21.39,0,0,0,279.31,260a.32.32,0,0,1-.48-.23.58.58,0,0,1,.31-.61,22,22,0,0,1,15-1.5Zm.87,6.25a22.11,22.11,0,0,0-13.82,1.79.58.58,0,0,0-.31.6.32.32,0,0,0,.19.25l-.11.05a.58.58,0,0,0-.31.6.32.32,0,0,0,.48.23,21.49,21.49,0,0,1,10.36-2.09,22.3,22.3,0,0,0-10.12,2.19.58.58,0,0,0-.31.6.31.31,0,0,0,.28.27.53.53,0,0,0,0,.31.32.32,0,0,0,.48.23,21.29,21.29,0,0,1,13.7-1.65l-.47-3.38Zm.5,3.59.14,1a21.28,21.28,0,0,0-14,1.59.32.32,0,0,1-.48-.23.59.59,0,0,1,.31-.6A22.09,22.09,0,0,1,295.55,267.54Z"/><path class="cls-11" d="M208.09,195.91a5.72,5.72,0,0,0-11.41.76c.83,12.1,2.15,25.55,4.09,40.47H97c2.05-14.84,3.69-28.21,5-40.25a5.71,5.71,0,1,0-11.36-1.21c-2.55,23.77-6.45,52.76-12.26,88-4.95,30-11.27,64.43-19.31,104H70.7c7.87-38.84,14.07-72.67,18.93-102.12q3.25-19.72,5.74-36.89h107q2.49,17.25,6.09,37c5.41,29.48,12.84,63.28,22.85,102h11.79c-10.32-39.64-17.93-74.11-23.42-104.06q-4.06-22.13-6.65-41a5.6,5.6,0,0,0-.11-.83C210.56,224.6,209,209.41,208.09,195.91Z"/><rect class="cls-20" x="187.31" y="182.6" width="271.3" height="23.42" rx="5.51" ry="5.51"/><path class="cls-12" d="M453.08,182.6H135.35a5.54,5.54,0,0,0-5.53,5.51v7.35h328.8v-7.35A5.54,5.54,0,0,0,453.08,182.6Z"/><path class="cls-14" d="M458.59,178.36H187.34a6,6,0,0,0-6,6h0a6,6,0,0,0,6,6H458.59a6,6,0,0,0,6-6h0A6,6,0,0,0,458.59,178.36Z"/><rect class="cls-21" x="84.8" y="182.6" width="130.4" height="23.42" rx="5.51" ry="5.51"/><path class="cls-11" d="M207.05,182.6H93c-4.48,0-8.15,2.48-8.15,5.51v7.35H215.2v-7.35C215.2,185.09,211.53,182.6,207.05,182.6Z"/><path class="cls-15" d="M215.2,178.36H81.54a6,6,0,0,0-6,6h0a6,6,0,0,0,6,6H215.2a6,6,0,0,0,6-6h0A6,6,0,0,0,215.2,178.36Z"/><path class="cls-22" d="M279.27,178.36s-5.78-6.57-4.37-14.33,1.55-22.71-6.63-26.94-18.19-3.65-22.57,2.4c0,0-2.33-3.31-4.94-3.17s-.42,4.3.21,4.8c-26.78-8.32-2.89,31.76-21.87,37.26Z"/><path class="cls-12" d="M279.27,178.36s-5.78-6.57-4.37-14.33c.19-1,.36-2.22.48-3.49-8.86,3.17-29.63,9.15-39.1-.38A31.31,31.31,0,0,1,227.83,145c-2.47,8.23,2.52,24.28-4.45,30.94,2.22.62,4.73,1.36,7.55,2.39Z"/><path class="cls-23" d="M307.85,178.36c5.4-4.16,2.25-18.27-10.84-14.43-9.3,2.73-25.07,8.25-27,8.66-2.66.56-8.61,0-10.12,0a5.76,5.76,0,0,0-5.36,5.77h53.35Z"/><path class="cls-23" d="M181.24,178.36a6.89,6.89,0,0,1-3.51-6.78c.42-4.87,6.26-9.69,10.66-10.18s52.22,10.22,56.7,10.82,14.52,0,17.07,0,9,1.62,9,6.14H181.24Z"/><path class="cls-24" d="M314.36,140s-.72-2.58-2.89-2.69-3,2.58-2.36,2.9S314.36,140,314.36,140Z"/><path class="cls-24" d="M312.48,144.62l.59-.12h0l2-.41c-2.4,6.6-9.12,5.65-6.48.57l3.31-.68v.34a.35.35,0,0,0,.45.33Z"/><path class="cls-3" d="M415.85,81.64H321.66a6.11,6.11,0,0,0-5.68,4.7L302.7,150.12a3.72,3.72,0,0,0,3.72,4.7h94.19a6.11,6.11,0,0,0,5.68-4.7l13.27-63.78A3.72,3.72,0,0,0,415.85,81.64Z"/><path class="cls-25" d="M415.85,81.64H324.74a6.12,6.12,0,0,0-5.68,4.7l-13.27,63.78a3.72,3.72,0,0,0,3.72,4.7h91.11a6.11,6.11,0,0,0,5.68-4.7l13.27-63.78A3.72,3.72,0,0,0,415.85,81.64Z"/><path class="cls-26" d="M340.83,154.82h23.08a8.24,8.24,0,0,0,.65-1.7c0-.92-5.3-16.8-13-19.29l-4.49-.1Z"/><path class="cls-27" d="M407.14,126.07H315.66a2.37,2.37,0,0,0-2.2,1.82h0a1.44,1.44,0,0,0,1.44,1.82h91.48a2.37,2.37,0,0,0,2.2-1.82h0A1.44,1.44,0,0,0,407.14,126.07Z"/><path class="cls-27" d="M405,131.62H315.54a3.71,3.71,0,0,0-3.44,2.85L309,149.36a2.25,2.25,0,0,0,2.26,2.85h89.42a3.7,3.7,0,0,0,3.44-2.85l3.1-14.89A2.25,2.25,0,0,0,405,131.62Z"/><path class="cls-26" d="M341.61,152.21h22.74c-1.07-3.59-6-16.18-12.77-18.37l-4.49-.1Z"/><path class="cls-26" d="M404.24,96.47H388.71a2.27,2.27,0,0,0-2.11,1.74l-4.68,22.49a1.38,1.38,0,0,0,1.38,1.74h15.52a2.27,2.27,0,0,0,2.11-1.74l4.68-22.49A1.38,1.38,0,0,0,404.24,96.47Z"/><path class="cls-27" d="M406.3,96.47H390.77a2.27,2.27,0,0,0-2.11,1.74L384,120.7a1.38,1.38,0,0,0,1.38,1.74h15.52A2.27,2.27,0,0,0,403,120.7l4.68-22.49A1.38,1.38,0,0,0,406.3,96.47Z"/><path class="cls-26" d="M402.35,109.46h0a1.21,1.21,0,0,0-1.12.93l-1.63,7.81a.74.74,0,0,0,.74.93h0a1.21,1.21,0,0,0,1.12-.93l1.63-7.81A.73.73,0,0,0,402.35,109.46Z"/><path class="cls-26" d="M398,109.46h0a1.21,1.21,0,0,0-1.12.93l-1.62,7.81a.73.73,0,0,0,.73.93h0a1.21,1.21,0,0,0,1.12-.93l1.62-7.81A.73.73,0,0,0,398,109.46Z"/><path class="cls-26" d="M393.58,109.46h0a1.21,1.21,0,0,0-1.12.93l-1.62,7.81a.74.74,0,0,0,.74.93h0a1.21,1.21,0,0,0,1.12-.93l1.62-7.81A.73.73,0,0,0,393.58,109.46Z"/><path class="cls-26" d="M389.2,109.46h0a1.21,1.21,0,0,0-1.12.93l-1.62,7.81a.73.73,0,0,0,.73.93h0a1.21,1.21,0,0,0,1.12-.93l1.62-7.81A.73.73,0,0,0,389.2,109.46Z"/><path class="cls-27" d="M415.22,87.26H323.74a2.37,2.37,0,0,0-2.2,1.82h0A1.44,1.44,0,0,0,323,90.9h91.48a2.37,2.37,0,0,0,2.2-1.82h0A1.44,1.44,0,0,0,415.22,87.26Z"/><path class="cls-26" d="M404.1,133.28H315.7a.93.93,0,0,0-.86.71h0a.56.56,0,0,0,.56.71h88.4a.93.93,0,0,0,.86-.71h0a.56.56,0,0,0-.57-.71Zm-3.17,15.25h-88.4a.93.93,0,0,0-.86.71h0a.56.56,0,0,0,.56.71h88.4a.92.92,0,0,0,.86-.71h0a.56.56,0,0,0-.56-.71Zm.64-3h-88.4a.93.93,0,0,0-.86.71h0a.56.56,0,0,0,.56.71h88.4a.93.93,0,0,0,.86-.71h0a.56.56,0,0,0-.57-.71Zm.63-3H313.8a.93.93,0,0,0-.86.71h0a.56.56,0,0,0,.56.71h88.4a.93.93,0,0,0,.86-.71h0a.56.56,0,0,0-.56-.71Zm.63-3h-88.4a.93.93,0,0,0-.86.71h0a.56.56,0,0,0,.56.71h88.4a.93.93,0,0,0,.86-.71h0a.56.56,0,0,0-.57-.71Zm.64-3h-88.4a.93.93,0,0,0-.86.71h0a.56.56,0,0,0,.56.71h88.4A.93.93,0,0,0,404,137h0A.56.56,0,0,0,403.47,136.33Z"/><path class="cls-28" d="M346.8,134.7h6.62a8.51,8.51,0,0,0-1.84-.87l-4.49-.1-.29,1Zm-.48,1.62-.42,1.43h10.94a19.18,19.18,0,0,0-1.35-1.43Zm-.91,3L345,140.8h14.08c-.31-.49-.64-1-1-1.43Zm-.9,3-.42,1.43h16.75c-.25-.47-.51-1-.78-1.43Zm-.9,3-.42,1.43h19.14c-.21-.46-.43-.94-.66-1.43Zm-.91,3-.42,1.43h21.29c-.17-.44-.35-.92-.56-1.43Z"/><path class="cls-26" d="M326.79,107.87h-1.61a1.38,1.38,0,0,0-1.28,1.06l-1,4.65a.84.84,0,0,0,.84,1.06h1.61a1.38,1.38,0,0,0,1.28-1.06l1-4.65A.84.84,0,0,0,326.79,107.87Z"/><path class="cls-27" d="M329.57,97.87h-3a2.58,2.58,0,0,0-2.39,2l-1.81,8.71a1.57,1.57,0,0,0,1.57,2h3a2.57,2.57,0,0,0,2.39-2l1.81-8.71A1.56,1.56,0,0,0,329.57,97.87Z"/><path class="cls-27" d="M380.35,94.78H340.28a2,2,0,0,0-1.82,1.5l-5,24.08a1.19,1.19,0,0,0,1.19,1.5h40.08a2,2,0,0,0,1.82-1.5l5-24.08A1.19,1.19,0,0,0,380.35,94.78Z"/><path class="cls-3" d="M377.49,98.27H355.95a1,1,0,0,0-1,.79h0a.63.63,0,0,0,.63.79h21.54a1,1,0,0,0,1-.79h0A.63.63,0,0,0,377.49,98.27Z"/><path class="cls-26" d="M376.66,102.23h-34a1,1,0,0,0-1,.79h0a.63.63,0,0,0,.63.79h34a1,1,0,0,0,1-.79h0A.63.63,0,0,0,376.66,102.23Z"/><path class="cls-26" d="M375.83,106.27h-34a1,1,0,0,0-1,.79h0a.63.63,0,0,0,.63.79h34a1,1,0,0,0,1-.79h0A.63.63,0,0,0,375.83,106.27Z"/><path class="cls-26" d="M375,110.31H341a1,1,0,0,0-1,.79h0a.62.62,0,0,0,.63.79h34a1,1,0,0,0,1-.79h0A.63.63,0,0,0,375,110.31Z"/><path class="cls-26" d="M374.14,114.35h-34a1,1,0,0,0-1,.79h0a.62.62,0,0,0,.63.79h34a1,1,0,0,0,1-.79h0A.62.62,0,0,0,374.14,114.35Z"/><path class="cls-26" d="M373.3,118.38h-34a1,1,0,0,0-1,.79h0a.63.63,0,0,0,.63.79h34a1,1,0,0,0,1-.79h0A.63.63,0,0,0,373.3,118.38Z"/><path class="cls-26" d="M343.51,98.27H352a.63.63,0,0,1,.63.79h0a1,1,0,0,1-1,.79h-8.46a.63.63,0,0,1-.63-.79h0A1,1,0,0,1,343.51,98.27Z"/><path class="cls-26" d="M350.46,134.32c-.74,0-1.92.19-1.92-.55a1.35,1.35,0,0,1,1.35-1.35h26.73a5.28,5.28,0,0,1,5.54,5.34c.12,1.73.84,7.13,1.67,13,.8,5.68,1.74,12.08,2.27,15.64a20.46,20.46,0,0,1,.24,3A10.91,10.91,0,0,1,385,175a6.8,6.8,0,0,1-5.12,3.29,10.59,10.59,0,0,1-1.55.11H349.75A1.35,1.35,0,0,1,348.4,177c0-.74,1.24-.44,2-.44l4.82-.91a7.88,7.88,0,0,0,1.16-.08,4.22,4.22,0,0,0,3.2-2,8.33,8.33,0,0,0,.93-4.22,18,18,0,0,0-.2-2.6c-.5-3.39-1.72-9.6-2.57-15.66-.83-5.9-1.57-11.38-1.69-13.16a2.69,2.69,0,0,0-2.76-2.83h-.14Z"/><path class="cls-3" d="M348.44,135.11a1.35,1.35,0,0,1,0-2.69h2.74a5.27,5.27,0,0,1,5.54,5.34c.12,1.73.85,7.13,1.67,13,.8,5.68,1.74,12.08,2.27,15.64a20.74,20.74,0,0,1,.23,3,10.9,10.9,0,0,1-1.32,5.6,6.8,6.8,0,0,1-5.12,3.29,10.61,10.61,0,0,1-1.55.11h-7.31a1.35,1.35,0,0,1,0-2.69h7.31a7.9,7.9,0,0,0,1.16-.08,4.22,4.22,0,0,0,3.2-2,8.33,8.33,0,0,0,.93-4.22,18,18,0,0,0-.2-2.6c-.5-3.39-1.42-9.6-2.27-15.66-.83-5.9-1.57-11.38-1.69-13.16a2.69,2.69,0,0,0-2.76-2.83h-2.83Z"/><path class="cls-29" d="M101.27,266.9c14.65-7.79,18.37,9.16,12.67,23.19S79,351.31,77.49,370c-.59,7.25-1.94,6.46-3.1,1.38C68.61,346,81.1,277.62,101.27,266.9Z"/><path class="cls-30" d="M70.25,202.62c-16.8-15.13-27.3,6-24.4,26.47s26,92.45,21.82,117.69c-1.61,9.78.44,9.18,3.65,2.84C87.32,318,93.37,223.44,70.25,202.62Z"/><path class="cls-31" d="M67.32,353.79c.36.94,1.16.47,2.23-1.09C87.06,294.38,59.78,207.24,59.69,207a.91.91,0,1,0-1.74.54C58,207.78,85.69,296.11,67.32,353.79Z"/><path class="cls-32" d="M33.55,251.08C17.27,244,14.72,262.38,22,276.87s42.36,62.39,45.55,82.23c1.24,7.69,2.61,6.73,3.42,1.21C75,332.77,56,260.83,33.55,251.08Z"/><path class="cls-33" d="M69,364.42c.5.61,1,.06,1.39-1.37-1.47-47.8-43.48-105.92-43.61-106.11a.71.71,0,1,0-1.16.83C25.75,258,68.33,316.88,69,364.42Z"/><polygon class="cls-11" points="56.48 355.01 87.75 355.01 95.91 362.38 89.24 388.07 72.11 388.07 54.98 388.07 48.31 362.38 56.48 355.01"/><rect class="cls-34" x="45.72" y="344.27" width="52.78" height="16.93" rx="2.59" ry="2.59"/><polygon class="cls-8" points="95.91 362.38 94.54 367.66 49.68 367.66 48.31 362.38 95.91 362.38"/><path class="cls-35" d="M131.84,33Zm3.27-12.46A6.29,6.29,0,1,1,133.27,25a6.27,6.27,0,0,1,1.84-4.45Zm1.36-6.24a11,11,0,0,0-2.47,1A11.16,11.16,0,0,0,131.84,17a.39.39,0,0,1-.46.06l-2.92-1.69h0a.73.73,0,0,0-1,.28v0l-2.06,3.56a.73.73,0,0,0,.27,1h0l2.9,1.67a.39.39,0,0,1,.18.43h0a11.19,11.19,0,0,0-.25,1.33,11.16,11.16,0,0,0,.25,4,.39.39,0,0,1-.2.44l-2.9,1.67h0a.73.73,0,0,0-.27,1l2.07,3.58h0a.73.73,0,0,0,1,.27h0l2.9-1.68a.39.39,0,0,1,.46.06A11.19,11.19,0,0,0,134,34.66a11,11,0,0,0,2.48,1.06.39.39,0,0,1,.28.37v3.37a.73.73,0,0,0,.72.72h4.14a.73.73,0,0,0,.72-.72V36.09a.39.39,0,0,1,.3-.38,11,11,0,0,0,2.47-1.05A11.19,11.19,0,0,0,147.28,33a.39.39,0,0,1,.48,0l2.9,1.68a.73.73,0,0,0,1-.27v0l2.06-3.56h0a.72.72,0,0,0,.07-.55.72.72,0,0,0-.33-.44l-2.92-1.69a.39.39,0,0,1-.18-.43h0a11.13,11.13,0,0,0,.24-1.33,11.23,11.23,0,0,0-.24-4,.39.39,0,0,1,.2-.44l2.9-1.67a.73.73,0,0,0,.26-1v0l-2.06-3.56h0a.73.73,0,0,0-1-.27h0l-2.92,1.69a.39.39,0,0,1-.47-.06,11.2,11.2,0,0,0-2.16-1.62,11.08,11.08,0,0,0-2.48-1.06.39.39,0,0,1-.28-.37V10.59a.73.73,0,0,0-.72-.72h-4.14a.73.73,0,0,0-.72.72V14A.39.39,0,0,1,136.47,14.34Z"/><path class="cls-35" d="M176.82,50.33a14.81,14.81,0,1,1-3.22,4.82,14.86,14.86,0,0,1,3.22-4.82Zm5.34-2a13.53,13.53,0,1,0,5.15-1,13.5,13.5,0,0,0-5.15,1Zm-1.64-10.91a23.74,23.74,0,0,0-2.73,1,24.4,24.4,0,0,0-2.62,1.31,24.67,24.67,0,0,0-2.47,1.64,24.4,24.4,0,0,0-2.26,1.93,1.55,1.55,0,0,1-1.85.22c-2.18-1.26-4.47-2.5-6.6-3.81a.92.92,0,0,0-.32-.1,1,1,0,0,0-.36,0,1,1,0,0,0-.33.16.94.94,0,0,0-.24.27c-1.59,2.4-3.18,5.5-4.65,8.05a.9.9,0,0,0-.12.34,1,1,0,0,0,0,.37,1,1,0,0,0,.16.33.92.92,0,0,0,.27.24c2,1.29,4.48,2.59,6.56,3.79a1.53,1.53,0,0,1,.65.73,1.52,1.52,0,0,1,.1.32l.13,0-.15.61q-.18.72-.31,1.44t-.22,1.46c-.06.5-.11,1-.13,1.47s0,1,0,1.49,0,1,0,1.49.08,1,.13,1.48.14,1,.22,1.46.19,1,.31,1.44a1.55,1.55,0,0,1-.8,1.75l-5.81,3.35h0l-.69.4a.93.93,0,0,0-.27.24,1,1,0,0,0-.16.33,1,1,0,0,0,0,.38.91.91,0,0,0,.12.34l4.3,7.45h0l.35.6a.94.94,0,0,0,.24.27,1,1,0,0,0,.33.16,1,1,0,0,0,.37,0,.9.9,0,0,0,.34-.12c2.08-1.31,4.43-2.56,6.57-3.79a1.55,1.55,0,0,1,1.85.22h0a24.17,24.17,0,0,0,10.15,5.87,1.54,1.54,0,0,1,.81.56,1.56,1.56,0,0,1,.31.94v7.58a.92.92,0,0,0,.07.36,1,1,0,0,0,.21.31.93.93,0,0,0,.66.28H192a.92.92,0,0,0,.36-.07,1,1,0,0,0,.31-.21,1,1,0,0,0,.21-.31.92.92,0,0,0,.07-.36V85.68a1.57,1.57,0,0,1,1.2-1.51,24.18,24.18,0,0,0,5.36-2.28,24.49,24.49,0,0,0,4.73-3.57,1.56,1.56,0,0,1,1.93-.18l6.49,3.75a.89.89,0,0,0,.34.11,1,1,0,0,0,.37,0,1,1,0,0,0,.33-.16.93.93,0,0,0,.24-.27c1.54-2.69,3.11-5.36,4.65-8.05a.94.94,0,0,0,.12-.34,1,1,0,0,0,0-.37,1,1,0,0,0-.16-.33.85.85,0,0,0-.27-.24l-6.56-3.79a1.55,1.55,0,0,1-.65-.73,1.61,1.61,0,0,1-.08-.25l-.17,0,.17-.7q.18-.72.31-1.44c.09-.47.16-1,.22-1.46s.11-1,.13-1.48,0-1,0-1.49,0-1,0-1.49-.07-1-.13-1.47-.14-1-.22-1.47-.19-1-.31-1.44a1.55,1.55,0,0,1,.1-1,1.56,1.56,0,0,1,.7-.73l6.5-3.75a.88.88,0,0,0,.27-.24.94.94,0,0,0,.16-.34,1,1,0,0,0,0-.37.93.93,0,0,0-.12-.34c-1.59-2.36-3.18-5.51-4.65-8.05a.94.94,0,0,0-.24-.27,1,1,0,0,0-.33-.16,1,1,0,0,0-.37,0,.92.92,0,0,0-.34.12L206,43.55a1.53,1.53,0,0,1-1,.2,1.56,1.56,0,0,1-.89-.44,24.29,24.29,0,0,0-7.35-4.87,24.07,24.07,0,0,0-2.78-1A1.55,1.55,0,0,1,192.9,36V28.38a.92.92,0,0,0-.07-.36.94.94,0,0,0-.21-.31.93.93,0,0,0-.31-.21.94.94,0,0,0-.36-.07h-9.3a.93.93,0,0,0-.36.07,1,1,0,0,0-.31.21.94.94,0,0,0-.27.66V36a1.55,1.55,0,0,1-.33,1,1.57,1.57,0,0,1-.86.55Zm-3.27-.29a25.74,25.74,0,0,0-7.77,5.15.18.18,0,0,1-.1,0,.19.19,0,0,1-.11,0l-6.62-3.83a2.29,2.29,0,0,0-.83-.26,2.35,2.35,0,0,0-.87.07,2.32,2.32,0,0,0-.81.4,2.3,2.3,0,0,0-.59.68c-1.6,2.59-3.12,5.4-4.65,8.05a2.29,2.29,0,0,0-.29.86,2.32,2.32,0,0,0,.46,1.71,2.26,2.26,0,0,0,.68.6c2.11,1.3,4.4,2.54,6.56,3.79a.17.17,0,0,1,.07.09.18.18,0,0,1,0,.11l-.15.61h0c-.07.3-.13.6-.18.91q-.14.79-.24,1.55c-.06.5-.11,1-.14,1.56s0,1.06,0,1.57,0,1,0,1.57.08,1.05.14,1.56.14,1,.24,1.55.21,1,.33,1.52a.18.18,0,0,1,0,.12.17.17,0,0,1-.08.09c-2.41,1.29-4.86,2.8-7.25,4.18l.09.11-.07.09a2.33,2.33,0,0,0-.46,1.71,2.26,2.26,0,0,0,.29.86l5,8.65.09-.06.15.13a2.32,2.32,0,0,0,2.54.18c2.19-1.16,4.44-2.56,6.6-3.81a.18.18,0,0,1,.11,0,.19.19,0,0,1,.11,0,25.66,25.66,0,0,0,5,3.76,25.61,25.61,0,0,0,5.73,2.44.18.18,0,0,1,.1.06.17.17,0,0,1,0,.11v7.58a2.31,2.31,0,0,0,.68,1.63,2.33,2.33,0,0,0,.75.5,2.29,2.29,0,0,0,.88.18H192a2.29,2.29,0,0,0,.88-.18,2.37,2.37,0,0,0,.75-.5,2.32,2.32,0,0,0,.5-.75,2.3,2.3,0,0,0,.18-.88V85.68a.18.18,0,0,1,0-.11.19.19,0,0,1,.1-.06h0a25.55,25.55,0,0,0,8.31-4.15,25.79,25.79,0,0,0,2.38-2,.17.17,0,0,1,.11-.05.19.19,0,0,1,.12,0l6.56,3.79a2.27,2.27,0,0,0,.85.29,2.32,2.32,0,0,0,1.71-.46,2.29,2.29,0,0,0,.58-.66c1.72-2.77,3.35-5.81,5-8.66l-.09-.05a2.09,2.09,0,0,0,0-.22,2.32,2.32,0,0,0-.46-1.71,2.29,2.29,0,0,0-.67-.59l-6.57-3.79a.18.18,0,0,1-.07-.08.19.19,0,0,1,0-.12l.17-.69h0q.09-.41.17-.82c.1-.52.18-1,.24-1.55s.11-1,.14-1.56,0-1.06,0-1.57,0-1,0-1.57-.08-1.05-.14-1.56-.14-1-.24-1.55-.21-1-.33-1.52a.19.19,0,0,1,0-.12.18.18,0,0,1,.08-.09l6.56-3.79a2.24,2.24,0,0,0,.67-.59,2.37,2.37,0,0,0,.4-.81,2.34,2.34,0,0,0,.06-.9,2.3,2.3,0,0,0-.28-.84c-1.56-2.89-3.35-5.81-5-8.68l-.09.06-.15-.13a2.33,2.33,0,0,0-1.71-.46,2.28,2.28,0,0,0-.85.28l-.49.28h0l-6.09,3.51a.19.19,0,0,1-.12,0,.18.18,0,0,1-.1-.05l0,0a25.92,25.92,0,0,0-5-3.75,25.64,25.64,0,0,0-5.73-2.44.18.18,0,0,1-.1-.06.17.17,0,0,1,0-.11V28.38a2.31,2.31,0,0,0-.68-1.63,2.33,2.33,0,0,0-.75-.5,2.29,2.29,0,0,0-.88-.18h-9.3a2.29,2.29,0,0,0-.88.18,2.37,2.37,0,0,0-.75.5,2.31,2.31,0,0,0-.68,1.63V36a.2.2,0,0,1,0,.12.19.19,0,0,1-.1.06h0A25.85,25.85,0,0,0,177.25,37.18Z"/><path class="cls-35" d="M465.76,138.62ZM469,126.16a6.29,6.29,0,1,1-1.84,4.45,6.27,6.27,0,0,1,1.84-4.45Zm1.36-6.24a11.06,11.06,0,0,0-2.47,1,11.18,11.18,0,0,0-2.16,1.63.39.39,0,0,1-.46.06L462.38,121h0a.73.73,0,0,0-1,.28v0l-2.06,3.56a.73.73,0,0,0,.26,1h0l2.9,1.67a.39.39,0,0,1,.18.43h0a11.11,11.11,0,0,0-.25,1.33,11.52,11.52,0,0,0,0,2.71,11.14,11.14,0,0,0,.25,1.33.39.39,0,0,1-.2.44l-2.9,1.67h0a.73.73,0,0,0-.26,1l2.07,3.58h0a.73.73,0,0,0,1,.27h0l2.9-1.68a.39.39,0,0,1,.46.06,11.1,11.1,0,0,0,4.65,2.69.39.39,0,0,1,.28.37V145a.73.73,0,0,0,.72.72h4.14a.73.73,0,0,0,.72-.72v-3.37a.39.39,0,0,1,.3-.38,11.08,11.08,0,0,0,2.47-1.05,11.23,11.23,0,0,0,2.16-1.63.39.39,0,0,1,.48,0l2.9,1.68a.73.73,0,0,0,1-.27v0l2.06-3.56h0a.73.73,0,0,0-.26-1l-2.92-1.69a.39.39,0,0,1-.18-.43h0a11.3,11.3,0,0,0,.24-1.33,11.38,11.38,0,0,0,0-2.71,11.3,11.3,0,0,0-.24-1.33.38.38,0,0,1,.2-.44l2.9-1.68a.73.73,0,0,0,.26-1v0l-2.06-3.56h0a.73.73,0,0,0-1-.27h0l-2.93,1.69a.38.38,0,0,1-.47-.06A11.16,11.16,0,0,0,479,121a11,11,0,0,0-2.48-1.05.38.38,0,0,1-.28-.37v-3.37a.73.73,0,0,0-.72-.72h-4.14a.73.73,0,0,0-.72.72v3.37A.39.39,0,0,1,470.4,119.92Z"/><path class="cls-35" d="M597.12,223.09a14.81,14.81,0,1,1-3.22,4.82,14.83,14.83,0,0,1,3.22-4.82Zm5.34-2a13.53,13.53,0,1,0,5.15-1,13.45,13.45,0,0,0-5.15,1Zm-1.64-10.91a24.4,24.4,0,0,0-2.73,1,24.3,24.3,0,0,0-5.1,3,24.48,24.48,0,0,0-2.26,1.93,1.55,1.55,0,0,1-1.85.22c-2.18-1.26-4.47-2.5-6.6-3.81a.92.92,0,0,0-.32-.1,1,1,0,0,0-.36,0,.93.93,0,0,0-.33.16.88.88,0,0,0-.24.27c-1.59,2.4-3.18,5.5-4.65,8.05a.91.91,0,0,0-.12.34,1,1,0,0,0,0,.38,1,1,0,0,0,.16.33,1,1,0,0,0,.27.24c2,1.29,4.48,2.59,6.56,3.79a1.53,1.53,0,0,1,.75,1.06l.14,0-.15.61c-.12.48-.22,1-.31,1.44s-.16,1-.22,1.46-.11,1-.14,1.48,0,1,0,1.49,0,1,0,1.49.08,1,.14,1.48.14,1,.22,1.46.19,1,.31,1.44a1.55,1.55,0,0,1-.8,1.75l-5.81,3.35h0l-.69.4a.94.94,0,0,0-.27.24,1,1,0,0,0-.16.33,1,1,0,0,0,0,.38.92.92,0,0,0,.12.34l4.3,7.45h0l.35.6a.89.89,0,0,0,.24.27.94.94,0,0,0,.33.17,1.05,1.05,0,0,0,.37,0,1,1,0,0,0,.34-.12c2.08-1.31,4.43-2.55,6.57-3.79a1.55,1.55,0,0,1,1.85.22h0A24.85,24.85,0,0,0,593,253a24.16,24.16,0,0,0,7.89,3.94,1.55,1.55,0,0,1,1.13,1.5V266a1,1,0,0,0,.58.87,1,1,0,0,0,.36.07h9.3a.93.93,0,0,0,.35-.07,1,1,0,0,0,.51-.51.93.93,0,0,0,.07-.36v-7.58a1.57,1.57,0,0,1,1.2-1.51,24.14,24.14,0,0,0,7.83-3.92,24.33,24.33,0,0,0,2.26-1.93,1.56,1.56,0,0,1,1.93-.17l6.49,3.75a.91.91,0,0,0,.34.12,1,1,0,0,0,.38,0,1,1,0,0,0,.33-.17,1,1,0,0,0,.24-.27c1.54-2.69,3.11-5.37,4.65-8.05a.9.9,0,0,0,.12-.34,1,1,0,0,0,0-.37,1,1,0,0,0-.16-.34.94.94,0,0,0-.27-.24l-6.57-3.79a1.52,1.52,0,0,1-.65-.73,1.48,1.48,0,0,1-.08-.25l-.17,0,.17-.7c.12-.48.22-1,.31-1.44s.16-1,.22-1.46.11-1,.13-1.48,0-1,0-1.49,0-1,0-1.49-.08-1-.13-1.47-.14-1-.22-1.47-.19-1-.31-1.44a1.53,1.53,0,0,1,.1-1,1.57,1.57,0,0,1,.7-.72l6.5-3.75a.92.92,0,0,0,.27-.24.94.94,0,0,0,.16-.33,1,1,0,0,0,0-.37.9.9,0,0,0-.12-.34c-1.59-2.36-3.18-5.52-4.65-8.05a1,1,0,0,0-.24-.27,1,1,0,0,0-.33-.16,1,1,0,0,0-.37,0,.93.93,0,0,0-.34.12l-6.57,3.79a1.54,1.54,0,0,1-1,.2,1.57,1.57,0,0,1-.89-.44,24.18,24.18,0,0,0-10.13-5.85,1.56,1.56,0,0,1-1.13-1.49v-7.58a.91.91,0,0,0-.28-.66.92.92,0,0,0-.31-.21.9.9,0,0,0-.35-.07H603a.91.91,0,0,0-.36.07.95.95,0,0,0-.58.87v7.58a1.55,1.55,0,0,1-1.2,1.51Zm-3.27-.29a25.64,25.64,0,0,0-5.38,3.12,25.79,25.79,0,0,0-2.38,2,.17.17,0,0,1-.1,0,.17.17,0,0,1-.11,0l-6.62-3.83a2.29,2.29,0,0,0-.83-.26,2.34,2.34,0,0,0-1.68.46,2.3,2.3,0,0,0-.59.67c-1.6,2.59-3.12,5.4-4.65,8.05A2.34,2.34,0,0,0,575,222a2.36,2.36,0,0,0,.4.81,2.31,2.31,0,0,0,.68.59c2.11,1.3,4.4,2.54,6.56,3.79a.18.18,0,0,1,.08.09.19.19,0,0,1,0,.12l-.15.61h0c-.07.3-.13.6-.18.91q-.15.79-.24,1.55T582,232q0,.8,0,1.57c0,.51,0,1,0,1.57s.08,1.06.14,1.56.14,1,.24,1.55.21,1,.33,1.52a.19.19,0,0,1-.09.21c-2.41,1.29-4.86,2.8-7.25,4.18l.08.1-.07.09a2.35,2.35,0,0,0-.4.81,2.33,2.33,0,0,0-.06.9,2.26,2.26,0,0,0,.29.86l5,8.66.09-.06.15.13a2.33,2.33,0,0,0,2.54.19c2.19-1.16,4.44-2.56,6.6-3.81a.19.19,0,0,1,.22,0,26,26,0,0,0,2.38,2,25.38,25.38,0,0,0,2.61,1.73,25.58,25.58,0,0,0,5.73,2.44.17.17,0,0,1,.09.07.16.16,0,0,1,0,.11V266a2.32,2.32,0,0,0,2.31,2.31h9.3a2.26,2.26,0,0,0,.88-.18,2.34,2.34,0,0,0,.75-.5,2.31,2.31,0,0,0,.5-.75,2.27,2.27,0,0,0,.18-.88v-7.58a.17.17,0,0,1,0-.11.18.18,0,0,1,.1-.06h0a25.56,25.56,0,0,0,8.31-4.15,26.34,26.34,0,0,0,2.38-2,.17.17,0,0,1,.11-.05.17.17,0,0,1,.12,0l6.56,3.79a2.29,2.29,0,0,0,.85.29,2.34,2.34,0,0,0,.9-.06,2.31,2.31,0,0,0,.81-.4,2.24,2.24,0,0,0,.58-.66c1.73-2.77,3.35-5.81,5-8.66l-.09-.05a1.83,1.83,0,0,0,0-.22,2.32,2.32,0,0,0-.46-1.71,2.26,2.26,0,0,0-.68-.59L632.61,240a.19.19,0,0,1-.07-.09.18.18,0,0,1,0-.12l.17-.69h0c.06-.27.11-.55.17-.82.1-.52.18-1,.24-1.55s.11-1,.14-1.56,0-1.06,0-1.57,0-1,0-1.57-.08-1.05-.14-1.56-.14-1-.24-1.55-.21-1-.33-1.52a.18.18,0,0,1,0-.12.18.18,0,0,1,.08-.09l6.55-3.79a2.22,2.22,0,0,0,.67-.6,2.33,2.33,0,0,0,.4-.81,2.29,2.29,0,0,0,.06-.9,2.35,2.35,0,0,0-.28-.84c-1.56-2.89-3.35-5.81-5-8.67l-.09.05-.16-.13a2.31,2.31,0,0,0-.81-.4,2.34,2.34,0,0,0-.9-.06,2.28,2.28,0,0,0-.85.28l-.49.28h0l-6.09,3.51a.18.18,0,0,1-.22,0l0,0a25.79,25.79,0,0,0-2.38-2,25.54,25.54,0,0,0-8.33-4.16.2.2,0,0,1-.1-.07.16.16,0,0,1,0-.11v-7.58a2.32,2.32,0,0,0-.68-1.63,2.32,2.32,0,0,0-.75-.5,2.28,2.28,0,0,0-.88-.18H603a2.29,2.29,0,0,0-.88.18,2.37,2.37,0,0,0-.75.5,2.31,2.31,0,0,0-.68,1.63v7.58a.22.22,0,0,1,0,.12.2.2,0,0,1-.1.06h0A25.33,25.33,0,0,0,597.54,209.94Z"/><path class="cls-4" d="M69,94.63a1.08,1.08,0,0,0-2.16,0v2.54H64.26a1.08,1.08,0,0,0,0,2.16H66.8v2.54a1.08,1.08,0,1,0,2.16,0V99.32H71.5a1.08,1.08,0,0,0,0-2.16H69Z"/><path class="cls-4" d="M255.85,32.3a1.08,1.08,0,0,0-2.16,0v2.54h-2.54a1.08,1.08,0,0,0,0,2.16h2.54v2.54a1.08,1.08,0,0,0,2.16,0V37h2.54a1.08,1.08,0,1,0,0-2.16h-2.54Z"/><path class="cls-4" d="M354.85,25a1.08,1.08,0,0,0-2.16,0V27.5h-2.54a1.08,1.08,0,1,0,0,2.16h2.54V32.2a1.08,1.08,0,1,0,2.16,0V29.66h2.54a1.08,1.08,0,1,0,0-2.16h-2.54Z"/><path class="cls-4" d="M538.17,247.39a1.08,1.08,0,1,0-2.16,0v2.54h-2.54a1.08,1.08,0,1,0,0,2.16H536v2.54a1.08,1.08,0,1,0,2.16,0v-2.54h2.54a1.08,1.08,0,0,0,0-2.16h-2.54Z"/><path class="cls-4" d="M120.2,343.94a1.08,1.08,0,0,0-2.16,0v2.54H115.5a1.08,1.08,0,1,0,0,2.16H118v2.54a1.08,1.08,0,1,0,2.16,0v-2.54h2.54a1.08,1.08,0,1,0,0-2.16H120.2Z"/><path class="cls-4" d="M70.09,164.29a1.08,1.08,0,0,0-2.16,0v2.54H65.39a1.08,1.08,0,0,0,0,2.16h2.54v2.54a1.08,1.08,0,1,0,2.16,0V169h2.54a1.08,1.08,0,0,0,0-2.16H70.09Z"/><rect class="cls-7" x="348.7" y="271.44" width="113.5" height="116.15" rx="3.87" ry="3.87"/><rect class="cls-36" x="438.07" y="271.44" width="46.01" height="116.15" rx="3.87" ry="3.87"/><rect class="cls-37" x="445.24" y="280.86" width="31.68" height="6.13" rx="2.11" ry="2.11"/><path class="cls-38" d="M474.18,283a2.12,2.12,0,0,0-2.11-2.11h2.73a2.12,2.12,0,0,1,2.11,2.11v1.9A2.12,2.12,0,0,1,474.8,287h-2.73c.13,0,2.11-1,2.11-2.11Z"/><rect class="cls-37" x="445.24" y="290.29" width="31.68" height="6.13" rx="2.11" ry="2.11"/><path class="cls-38" d="M474.18,292.4a2.12,2.12,0,0,0-2.11-2.11h2.73a2.12,2.12,0,0,1,2.11,2.11v1.91a2.11,2.11,0,0,1-2.11,2.11h-2.73c.13,0,2.11-.95,2.11-2.11Z"/><rect class="cls-37" x="445.24" y="299.72" width="31.68" height="6.13" rx="2.11" ry="2.11"/><path class="cls-38" d="M474.18,301.83a2.12,2.12,0,0,0-2.11-2.11h2.73a2.11,2.11,0,0,1,2.11,2.11v1.91a2.12,2.12,0,0,1-2.11,2.11h-2.73c.13,0,2.11-1,2.11-2.11Z"/><rect class="cls-37" x="445.24" y="309.15" width="31.68" height="6.13" rx="2.11" ry="2.11"/><path class="cls-38" d="M474.18,311.26a2.12,2.12,0,0,0-2.11-2.11h2.73a2.12,2.12,0,0,1,2.11,2.11v1.91a2.11,2.11,0,0,1-2.11,2.11h-2.73c.13,0,2.11-.95,2.11-2.11Z"/><rect class="cls-37" x="444.48" y="337.4" width="33.18" height="33.37" rx="8.6" ry="8.6"/><path class="cls-38" d="M474.46,346a8.63,8.63,0,0,0-8.6-8.6h3.21a8.62,8.62,0,0,1,8.6,8.6v16.17a8.62,8.62,0,0,1-8.6,8.6h-3.21a8.63,8.63,0,0,0,8.6-8.6Z"/><path class="cls-39" d="M462,337.4h-1.93v9.68a7.08,7.08,0,0,0-6,6h-9.68v1.93h9.68a7.08,7.08,0,0,0,6,6v9.68H462v-9.68a7.07,7.07,0,0,0,6-6h9.68v-1.93h-9.68a7.08,7.08,0,0,0-6-6V337.4Zm-1,21.85a5.16,5.16,0,1,1,5.16-5.16A5.16,5.16,0,0,1,461.07,359.25Z"/><rect class="cls-37" x="444.48" y="328.38" width="14.52" height="6.13" rx="2.11" ry="2.11"/><path class="cls-38" d="M456.27,330.49a2.12,2.12,0,0,0-2.11-2.11h2.73a2.12,2.12,0,0,1,2.11,2.11v1.91a2.12,2.12,0,0,1-2.11,2.11h-2.73c.13,0,2.11-.95,2.11-2.11Z"/><rect class="cls-37" x="444.48" y="319.23" width="14.52" height="6.13" rx="2.11" ry="2.11"/><path class="cls-38" d="M456.27,321.34a2.12,2.12,0,0,0-2.11-2.11h2.73a2.12,2.12,0,0,1,2.11,2.11v1.91a2.12,2.12,0,0,1-2.11,2.11h-2.73c.13,0,2.11-.95,2.11-2.11Z"/><rect class="cls-36" x="358.39" y="283.24" width="53.29" height="53.59" rx="13.81" ry="13.81"/><rect class="cls-40" x="360.18" y="285.04" width="49.7" height="49.99" rx="12.88" ry="12.88"/><path class="cls-41" d="M364.29,331.57a12.83,12.83,0,0,0,8.77,3.46H397a12.92,12.92,0,0,0,12.88-12.88V303H398.8V289.42H372.4V318.2h-8.11Z"/><path class="cls-26" d="M422.49,346.43h-1.58a1.44,1.44,0,0,0,2.56.06,8.38,8.38,0,0,0-1-.06Zm-2.74,0h-2.59a1.44,1.44,0,0,0,2.59,0Zm-3.75,0h-2.59a1.44,1.44,0,0,0,2.59,0Zm-3.75,0h-2.59a1.44,1.44,0,0,0,2.59,0Zm-3.75,0h-1.58a8.36,8.36,0,0,0-1,.06,1.44,1.44,0,0,0,2.56-.06Zm-4,.36a8.37,8.37,0,0,0-1.16.45h.11a1.43,1.43,0,0,0,1-.46ZM401,348.91a8.5,8.5,0,0,0-1.51,2.07l.22,0a1.44,1.44,0,0,0,1.28-2.09Zm-2,3.14a8.28,8.28,0,0,0-.45,2.13,1.43,1.43,0,1,0,.45-2.13Zm-.47,4.16v1.69a1.44,1.44,0,1,0,0-1.69Zm0,3.75v1.69a1.44,1.44,0,1,0,0-1.69Zm0,3.75v1.69a1.44,1.44,0,1,0,0-1.69Zm0,3.75v1.69a1.44,1.44,0,1,0,0-1.69Zm0,3.72a8.25,8.25,0,0,0,.45,2.14,1.44,1.44,0,1,0,.69-2.69,1.43,1.43,0,0,0-1.14.56Zm.91,3.21a8.42,8.42,0,0,0,1.51,2.06,1.44,1.44,0,0,0-1.28-2.08l-.22,0Zm3.86,3.74a8.48,8.48,0,0,0,1.16.45,1.43,1.43,0,0,0-1-.45Zm2.6.75a8.33,8.33,0,0,0,1,.06h1.58a1.44,1.44,0,0,0-2.56-.06Zm3.72.06h2.59a1.44,1.44,0,0,0-2.59,0Zm3.75,0H416a1.44,1.44,0,0,0-2.59,0Zm3.75,0h2.59a1.44,1.44,0,0,0-2.59,0Zm3.75,0h1.58a8.36,8.36,0,0,0,1-.06,1.44,1.44,0,0,0-2.56.06Zm4-.36a8.49,8.49,0,0,0,1.16-.45H426a1.43,1.43,0,0,0-1,.45Zm3.51-2.12a8.46,8.46,0,0,0,1.51-2.06l-.23,0a1.44,1.44,0,0,0-1.28,2.08Zm2-3.14a8.29,8.29,0,0,0,.45-2.14,1.44,1.44,0,1,0-1.14,2.31,1.45,1.45,0,0,0,.69-.18Zm.47-4.16v-1.69a1.44,1.44,0,1,0,0,1.69Zm0-3.75v-1.69a1.44,1.44,0,1,0,0,1.69Zm0-3.75V360a1.44,1.44,0,1,0,0,1.69Zm0-3.75v-1.69a1.44,1.44,0,1,0,0,1.69Zm0-3.72a8.2,8.2,0,0,0-.45-2.13,1.41,1.41,0,0,0-.69-.18,1.44,1.44,0,1,0,1.14,2.31Zm-.91-3.21a8.5,8.5,0,0,0-1.51-2.07,1.45,1.45,0,0,0-.15.65A1.44,1.44,0,0,0,429.7,351l.23,0Zm-3.86-3.73a8.34,8.34,0,0,0-1.16-.45,1.43,1.43,0,0,0,1,.46Zm-22.61,30a1.44,1.44,0,1,1,1.43-1.44,1.44,1.44,0,0,1-1.43,1.44Zm3.75,0a1.44,1.44,0,1,1,1.43-1.44,1.44,1.44,0,0,1-1.43,1.44Zm3.75,0a1.44,1.44,0,1,1,1.44-1.44,1.44,1.44,0,0,1-1.44,1.44Zm3.75,0a1.44,1.44,0,1,1,1.44-1.44,1.44,1.44,0,0,1-1.44,1.44Zm3.75,0a1.44,1.44,0,1,1,1.44-1.44,1.44,1.44,0,0,1-1.44,1.44Zm3.75,0a1.44,1.44,0,1,1,1.44-1.44,1.44,1.44,0,0,1-1.44,1.44Zm3.75,0a1.44,1.44,0,1,1,1.43-1.44,1.43,1.43,0,0,1-1.43,1.44Zm-22.49-6.62a1.44,1.44,0,1,0,1.43,1.43,1.44,1.44,0,0,0-1.43-1.43Zm3.75,0a1.44,1.44,0,1,0,1.43,1.43,1.44,1.44,0,0,0-1.43-1.43Zm3.75,0a1.44,1.44,0,1,0,1.44,1.43,1.44,1.44,0,0,0-1.44-1.43Zm3.75,0a1.44,1.44,0,1,0,1.44,1.43,1.43,1.43,0,0,0-1.44-1.43Zm3.75,0a1.44,1.44,0,1,0,1.44,1.43,1.43,1.43,0,0,0-1.44-1.43Zm3.75,0a1.44,1.44,0,1,0,1.44,1.43,1.44,1.44,0,0,0-1.44-1.43Zm3.75,0a1.44,1.44,0,1,0,1.43,1.43,1.43,1.43,0,0,0-1.43-1.43Zm-22.49-.88a1.44,1.44,0,1,1,1.43-1.44,1.44,1.44,0,0,1-1.43,1.44Zm3.75,0a1.44,1.44,0,1,1,1.43-1.44,1.44,1.44,0,0,1-1.43,1.44Zm3.75,0a1.44,1.44,0,1,1,1.44-1.44,1.44,1.44,0,0,1-1.44,1.44Zm3.75,0a1.44,1.44,0,1,1,1.44-1.44,1.44,1.44,0,0,1-1.44,1.44Zm3.75,0a1.44,1.44,0,1,1,1.44-1.44,1.44,1.44,0,0,1-1.44,1.44Zm3.75,0a1.44,1.44,0,1,1,1.44-1.44,1.44,1.44,0,0,1-1.44,1.44Zm3.75,0a1.44,1.44,0,1,1,1.43-1.44,1.43,1.43,0,0,1-1.43,1.44Zm-22.49-6.62a1.44,1.44,0,1,0,1.43,1.44,1.44,1.44,0,0,0-1.43-1.44Zm3.75,0a1.44,1.44,0,1,0,1.43,1.44,1.44,1.44,0,0,0-1.43-1.44Zm3.75,0a1.44,1.44,0,1,0,1.44,1.44,1.44,1.44,0,0,0-1.44-1.44Zm3.75,0a1.44,1.44,0,1,0,1.44,1.44,1.44,1.44,0,0,0-1.44-1.44Zm3.75,0a1.44,1.44,0,1,0,1.44,1.44,1.44,1.44,0,0,0-1.44-1.44Zm3.75,0a1.44,1.44,0,1,0,1.44,1.44,1.44,1.44,0,0,0-1.44-1.44Zm3.75,0a1.44,1.44,0,1,0,1.43,1.44,1.44,1.44,0,0,0-1.43-1.44Zm-22.49-.88a1.44,1.44,0,1,1,1.43-1.43,1.44,1.44,0,0,1-1.43,1.43Zm3.75,0a1.44,1.44,0,1,1,1.43-1.43,1.44,1.44,0,0,1-1.43,1.43Zm3.75,0a1.44,1.44,0,1,1,1.44-1.43,1.44,1.44,0,0,1-1.44,1.43Zm3.75,0a1.44,1.44,0,1,1,1.44-1.43,1.43,1.43,0,0,1-1.44,1.43Zm3.75,0a1.44,1.44,0,1,1,1.44-1.43,1.43,1.43,0,0,1-1.44,1.43Zm3.75,0a1.44,1.44,0,1,1,1.44-1.43,1.43,1.43,0,0,1-1.44,1.43Zm3.75,0a1.44,1.44,0,1,1,1.43-1.43,1.43,1.43,0,0,1-1.43,1.43Zm-22.49-6.62a1.44,1.44,0,1,0,1.43,1.44,1.44,1.44,0,0,0-1.43-1.44Zm3.75,0a1.44,1.44,0,1,0,1.43,1.44,1.44,1.44,0,0,0-1.43-1.44Zm3.75,0a1.44,1.44,0,1,0,1.44,1.44,1.44,1.44,0,0,0-1.44-1.44Zm3.75,0a1.44,1.44,0,1,0,1.44,1.44,1.44,1.44,0,0,0-1.44-1.44Zm3.75,0a1.44,1.44,0,1,0,1.44,1.44,1.44,1.44,0,0,0-1.44-1.44Zm3.75,0a1.44,1.44,0,1,0,1.44,1.44,1.44,1.44,0,0,0-1.44-1.44Zm3.75,0a1.44,1.44,0,1,0,1.43,1.44,1.44,1.44,0,0,0-1.43-1.44Zm-22.49-.87a1.44,1.44,0,1,1,1.43-1.44,1.44,1.44,0,0,1-1.43,1.44Zm3.75,0a1.44,1.44,0,1,1,1.43-1.44,1.44,1.44,0,0,1-1.43,1.44Zm3.75,0a1.44,1.44,0,1,1,1.44-1.44,1.44,1.44,0,0,1-1.44,1.44Zm3.75,0a1.44,1.44,0,1,1,1.44-1.44,1.44,1.44,0,0,1-1.44,1.44Zm3.75,0a1.44,1.44,0,1,1,1.44-1.44,1.44,1.44,0,0,1-1.44,1.44Zm3.75,0a1.44,1.44,0,1,1,1.44-1.44,1.44,1.44,0,0,1-1.44,1.44Zm3.75,0a1.44,1.44,0,1,1,1.43-1.44,1.44,1.44,0,0,1-1.43,1.44Zm-22.49-6.62a1.44,1.44,0,1,0,1.43,1.44,1.44,1.44,0,0,0-1.43-1.44Zm3.75,0a1.44,1.44,0,1,0,1.43,1.44,1.44,1.44,0,0,0-1.43-1.44Zm3.75,0a1.44,1.44,0,1,0,1.44,1.44,1.44,1.44,0,0,0-1.44-1.44Zm3.75,0a1.44,1.44,0,1,0,1.44,1.44,1.43,1.43,0,0,0-1.44-1.44Zm3.75,0a1.44,1.44,0,1,0,1.44,1.44,1.43,1.43,0,0,0-1.44-1.44Zm3.75,0a1.44,1.44,0,1,0,1.44,1.44,1.44,1.44,0,0,0-1.44-1.44Zm3.75,0a1.44,1.44,0,1,0,1.43,1.44A1.43,1.43,0,0,0,426,348.12Z"/><path class="cls-26" d="M390.06,376.86H355.55a1,1,0,0,0-1,1h0a1,1,0,0,0,1,1h34.51a1,1,0,0,0,1-1h0A1,1,0,0,0,390.06,376.86Z"/><path class="cls-26" d="M390.06,372.51H355.55a1,1,0,0,0-1,1h0a1,1,0,0,0,1,1h34.51a1,1,0,0,0,1-1h0A1,1,0,0,0,390.06,372.51Z"/><path class="cls-26" d="M390.06,368.17H355.55a1,1,0,0,0-1,1h0a1,1,0,0,0,1,1h34.51a1,1,0,0,0,1-1h0A1,1,0,0,0,390.06,368.17Z"/><path class="cls-26" d="M390.06,363.82H361.4a1,1,0,0,0-1,1h0a1,1,0,0,0,1,1h28.66a1,1,0,0,0,1-1h0A1,1,0,0,0,390.06,363.82Z"/><path class="cls-26" d="M390.06,359.47H355.55a1,1,0,0,0-1,1h0a1,1,0,0,0,1,1h34.51a1,1,0,0,0,1-1h0A1,1,0,0,0,390.06,359.47Z"/><path class="cls-26" d="M390.06,355.13H355.55a1,1,0,0,0-1,1h0a1,1,0,0,0,1,1h34.51a1,1,0,0,0,1-1h0A1,1,0,0,0,390.06,355.13Z"/><path class="cls-26" d="M383.65,350.78h-28.1a1,1,0,0,0-1,1h0a1,1,0,0,0,1,1h28.1a1,1,0,0,0,1-1h0A1,1,0,0,0,383.65,350.78Z"/><path class="cls-26" d="M390.06,346.43H355.55a1,1,0,0,0-1,1h0a1,1,0,0,0,1,1h34.51a1,1,0,0,0,1-1h0A1,1,0,0,0,390.06,346.43Z"/><path class="cls-26" d="M357.06,363.82h-1.51a1,1,0,0,0-1,1h0a1,1,0,0,0,1,1h1.51a1,1,0,0,0,1-1h0A1,1,0,0,0,357.06,363.82Z"/><path class="cls-26" d="M390.06,350.78H387.6a1,1,0,0,0-1,1h0a1,1,0,0,0,1,1h2.46a1,1,0,0,0,1-1h0A1,1,0,0,0,390.06,350.78Z"/><path class="cls-42" d="M377.59,285h-4.53a12.86,12.86,0,0,0-9.63,4.35l42.25,42.25a12.85,12.85,0,0,0,4.2-9.49v-4.82L377.59,285Zm-16.48,8.07L402,334a12.8,12.8,0,0,1-5,1h-1.37l-35.46-35.46v-1.65A12.78,12.78,0,0,1,361.12,293.11Z"/></g></g></svg>