<svg xmlns="http://www.w3.org/2000/svg" viewBox="0 0 2584.88 1892.47"><defs><style>.cls-1{fill:#e3eaff;}.cls-2{fill:#fff;}.cls-3{fill:#201d40;}.cls-4{fill:#f37a50;}.cls-5{fill:#de623c;}.cls-6{fill:#2c2858;}.cls-7{fill:#e62552;}.cls-8{fill:#c4204a;}.cls-9{fill:#95a6db;}.cls-10{fill:#768fdb;}.cls-11{fill:#8a284c;}.cls-12{fill:#494c7f;}.cls-13{fill:#0e6a41;}.cls-14{fill:#ff4f78;}.cls-15{fill:#3f964f;}.cls-16{fill:#ffe91d;}</style></defs><title>Asset 1</title><g id="Layer_2" data-name="Layer 2"><g id="Слой_1" data-name="Слой 1"><path class="cls-1" d="M354.33,1875.16C172.74,1677.45-75.43,1473.3,21.88,1164.91c64-202.84,220.95-259.37,351.4-384.45,64.38-61.73,23.89-151.58,22.69-240.75C393.25,311.34,648.1,134.14,882.41,137.84c253.79,4,363.65,259.15,576.54,272.84,83.6,1.28,158.45-47.78,232.42-86.75,219.16-115.48,566.91-41.84,584.49,237.42,4.54,150.81-167.11,393.45,4.87,472.77,137.06,63.22,275.53,86.5,300.23,312.61,32.33,295.95-138.59,458.37-361.31,534.54Z"/><path class="cls-2" d="M473.08,749.71H725.76a56.63,56.63,0,0,1,56.63,56.63V924.14a56.63,56.63,0,0,1-56.63,56.63h-1.87l20.28,67.94a3.22,3.22,0,0,1-5,3.48L645.5,980.77H473.08a56.63,56.63,0,0,1-56.63-56.63V806.35A56.63,56.63,0,0,1,473.08,749.71Z"/><path class="cls-1" d="M725.64,848.62H483a28,28,0,0,1-28-28h0a28,28,0,0,1,28-28H725.64a28,28,0,0,1,28,28h0A28,28,0,0,1,725.64,848.62Z"/><path class="cls-1" d="M725.64,934.23H483a28,28,0,0,1-28-28h0a28,28,0,0,1,28-28H725.64a28,28,0,0,1,28,28h0A28,28,0,0,1,725.64,934.23Z"/><path class="cls-2" d="M2019.43,431.76H1743.87a61.76,61.76,0,0,0-61.76,61.76V622a61.76,61.76,0,0,0,61.76,61.76h2l-22.12,74.09a3.51,3.51,0,0,0,5.5,3.8l102.1-77.89h188A61.76,61.76,0,0,0,2081.19,622V493.52A61.76,61.76,0,0,0,2019.43,431.76Z"/><rect class="cls-1" x="1714.74" y="484.27" width="327.29" height="56.06" rx="24.92" ry="24.92"/><rect class="cls-1" x="1723.72" y="569.03" width="185.99" height="56.06" rx="28.03" ry="28.03"/><path class="cls-2" d="M180.5,1383.55q15.67-11.84,37.6-11.84c31.57,0,48.28,17.18,48.28,41.32,0,13.93-6.73,28.09-20.43,42.25-17.41,18.34-29.94,27.39-37.84,27.39a13.08,13.08,0,0,1-13.23-13.23c0-6.5,6-13,16.48-22.52a10.1,10.1,0,0,1,1.86-1.62c11.84-10.91,15.55-16.95,15.55-24.37,0-9.29-6.27-14.39-15.32-14.39a49.73,49.73,0,0,0-14.86,2.79q-8.7,2.78-12.53,2.79a14.48,14.48,0,0,1-13.93-14.86C172.15,1392.37,174.93,1387.73,180.5,1383.55Zm31.8,154.82c-14.16,0-23.68-10.68-23.68-23.68,0-11.14,9.52-21.82,23.68-21.82,12.3,0,21.82,10.68,21.82,21.82C234.12,1527.47,225.07,1538.38,212.31,1538.38Z"/><path class="cls-2" d="M2076.85,862.68q10.3-7.79,24.73-7.79c20.76,0,31.75,11.3,31.75,27.17,0,9.16-4.43,18.47-13.43,27.78-11.45,12.06-19.69,18-24.88,18a8.6,8.6,0,0,1-8.7-8.7c0-4.27,4-8.55,10.84-14.81a6.71,6.71,0,0,1,1.22-1.07c7.79-7.17,10.23-11.14,10.23-16,0-6.11-4.12-9.46-10.08-9.46a32.72,32.72,0,0,0-9.77,1.83,31.34,31.34,0,0,1-8.24,1.83,9.52,9.52,0,0,1-9.16-9.77C2071.36,868.48,2073.19,865.43,2076.85,862.68Zm20.91,101.82a15.16,15.16,0,0,1-15.57-15.57c0-7.33,6.26-14.35,15.57-14.35a14.63,14.63,0,0,1,14.35,14.35C2112.12,957.32,2106.16,964.5,2097.77,964.5Z"/><path class="cls-2" d="M2533.45,1426.84H2243.63a9.28,9.28,0,0,1-9.28-9.28V1168.08a9.28,9.28,0,1,1,18.55,0v240.2h280.55a9.28,9.28,0,1,1,0,18.56Z"/><path class="cls-2" d="M2265.57,1365.85a9.28,9.28,0,0,1-6.67-15.73l93.67-96.9a9.28,9.28,0,0,1,11.72-1.34l44.29,28.73,46.71-54.27a9.28,9.28,0,1,1,14.06,12.1l-52,60.41a9.28,9.28,0,0,1-12.08,1.73l-44.68-29-88.36,91.4A9.25,9.25,0,0,1,2265.57,1365.85Z"/><polygon class="cls-2" points="2469.56 1266.13 2456.34 1239.36 2427.89 1230.28 2491.23 1198.82 2469.56 1266.13"/><path class="cls-2" d="M586.35,522.14A56.14,56.14,0,1,1,642.49,466,56.21,56.21,0,0,1,586.35,522.14Zm0-96.82A40.68,40.68,0,1,0,627,466,40.72,40.72,0,0,0,586.35,425.32Z"/><path class="cls-1" d="M2299.15,969a41.12,41.12,0,1,1,41.12-41.12A41.17,41.17,0,0,1,2299.15,969Zm0-70.92a29.8,29.8,0,1,0,29.79,29.8A29.83,29.83,0,0,0,2299.15,898.07Z"/><path class="cls-2" d="M140.31,1194.41a36.92,36.92,0,1,1,36.92-36.92A37,37,0,0,1,140.31,1194.41Zm0-63.68a26.75,26.75,0,1,0,26.75,26.75A26.78,26.78,0,0,0,140.31,1130.73Z"/><circle class="cls-2" cx="2099.51" cy="358.38" r="20.09"/><circle class="cls-1" cx="319.35" cy="730.31" r="39.5"/><circle class="cls-1" cx="2209.94" cy="280.5" r="29.69"/><circle class="cls-1" cx="2359.6" cy="993.51" r="25.35"/><circle class="cls-2" cx="2133.95" cy="434.04" r="31.6"/><circle class="cls-2" cx="680.16" cy="376.65" r="32.05"/><path class="cls-3" d="M2228,1892.47H330.76a11.21,11.21,0,0,1-11.21-11.21h0a11.21,11.21,0,0,1,11.21-11.21H2228a11.21,11.21,0,0,1,11.21,11.21h0A11.21,11.21,0,0,1,2228,1892.47Z"/><polygon id="v-2" class="cls-4" points="958.36 911.01 958.39 911.01 987.51 911.12 994.11 979.9 960.11 997.85 923.86 980.11 929.72 911.12 958.36 911.01"/><ellipse class="cls-4" cx="942.04" cy="855.17" rx="68.6" ry="87.35" transform="translate(-250.3 411.22) rotate(-21.81)"/><circle cx="995.85" cy="840.62" r="6.59" transform="translate(-301.68 719.1) rotate(-34.82)"/><circle cx="946.94" cy="860.45" r="7.13" transform="translate(-321.77 694.8) rotate(-34.82)"/><path class="cls-5" d="M980.43,854.9c8.91,7,20,15.5,20,15.5s.11,10.74-12.44,15.4c4.54-4.12,8.53-9.6,3.8-15.93S980.43,854.9,980.43,854.9Z"/><path class="cls-3" d="M928.1,860.23a3.29,3.29,0,0,1-3.2-4.05c1.15-4.82,6-14,16-14a3.29,3.29,0,1,1,0,6.58c-7.42,0-9.62,8.86-9.64,9A3.29,3.29,0,0,1,928.1,860.23Z"/><path class="cls-3" d="M983.54,830.44a2.74,2.74,0,0,1-2.36-4.13c.12-.2,3-5,8.44-6,3.72-.69,7.56.53,11.42,3.62a2.74,2.74,0,0,1-3.42,4.28c-2.56-2.05-4.92-2.89-7-2.51a7.92,7.92,0,0,0-4.71,3.42A2.74,2.74,0,0,1,983.54,830.44Z"/><path class="cls-3" d="M853.87,847.21c-15.16-43.16,21.77-68,21.77-68s-9.91-.89-11.09-14.8a36.6,36.6,0,0,0,23-.5c49.22-17.82,83.11-17.58,83.11,3.48,0,7.5,32.51,2.36,29.78,52.79.19-3.56-11.42-24.29-22.4-26.36s-1.07,12.6-24,15.75c-23.15,3.18-40.16-2.44-54.3,10.61C888.71,831.59,886,889.52,887.65,893,883.79,885,860.54,866.17,853.87,847.21Z"/><path class="cls-3" d="M1012.52,854.9s2.09,26.28-1.7,34.41c-3.94-10.54-12.41.63-20.36,1.68-19.22,2.54-53.89-3.86-57.32,25-23.48,7.43-45.48-42.84-45.48-42.84-1.35,56.16,39.75,88.05,98.89,78.71C1025.5,945.66,1029.12,891.4,1012.52,854.9Z"/><path class="cls-5" d="M972,908.74a50,50,0,0,1-11.86-4.65,2.19,2.19,0,0,1,2.07-3.87c9.1,4.86,17.25,6.25,24.24,4.11a22.87,22.87,0,0,0,12.62-10,2.19,2.19,0,0,1,3.88,2,26.94,26.94,0,0,1-15.15,12.12A29.6,29.6,0,0,1,972,908.74Z"/><ellipse class="cls-4" cx="878.86" cy="888.13" rx="16.81" ry="20.54" transform="translate(-325.88 1219.46) rotate(-60.68)"/><path class="cls-5" d="M885.59,897.72a2.47,2.47,0,0,0,.76-.85c2.72-5,2.27-10.16-1.19-13.72a12,12,0,0,0-13.62-2.5,2.48,2.48,0,1,0,2.24,4.43,7.07,7.07,0,0,1,7.82,1.53c1.93,2,2.06,4.79.38,7.91a2.48,2.48,0,0,0,3.61,3.21Z"/><path d="M992.06,1829.59c6.2-16.83,19.44-18.7,19.44-18.7,25.75,35.53,89,13.73,86.89,61.78-96.16-.62-136.13,0-136.13,0,.13-11,2-37.23,4.25-47.49l5,.92Z"/><path d="M848.18,1830.52c6.2-16.83,19.44-18.7,19.44-18.7,25.75,35.53,89,13.73,86.89,61.78-96.16-.62-136.13,0-136.13,0,.13-11,2-37.23,4.25-47.49l5,.92Z"/><path class="cls-3" d="M1056,1268.49s15.61,227.71,9.27,278.33-28.8,115.53-26.26,283c-31.35,7.85-76.76,0-76.76,0s-6.73-189.34,26.4-273.91C975.19,1473.75,932,1285.6,932,1285.6Z"/><path class="cls-6" d="M996.68,1274.72s-31.52,255.64-47,304.13-45.53,89.49-73.47,254.44c-32.21,1.61-62.21,0-62.21,0s4.35-209.24,54.52-256.82c1.7-83.3-8.11-300.1-8.11-300.1Z"/><g id="v"><path id="h-5" class="cls-7" d="M851.35,984.59s54.75-19.17,73-10.38c56.73,27.32,69.75,0,69.75,0,18.13,1.56,72.86,10.38,72.86,10.38,0,61.12,4.08,122.44,3,168.69-.78,40.28,6.89,149.88,6.89,149.88s-60.37,15.83-117.47,16.24c-57.11-.37-115.23-15.6-115.23-15.6s3.05-111,5.59-152.27C848.89,1105.28,851.35,1045.54,851.35,984.59Z"/></g><g id="c"><path id="c-2" data-name="c" class="cls-8" d="M1164.29,1075.42c-22.6-53.92-89.66-88.22-97.33-90.83l-15.56,69.22a405.35,405.35,0,0,1,55.6,39.66c-4,19.28-3.3,38.18-14.46,62.56,0,0,9.69-13.37,21.65-5.46,11.62,7.69,33-8,33-8S1181.56,1116.61,1164.29,1075.42Z"/></g><g id="c-3" data-name="c"><g id="c-4" data-name="c"><g id="c-5" data-name="c"><path id="c-6" data-name="c" class="cls-9" d="M1151.7,1211.69a6.1,6.1,0,0,0,1.17.24h1.29a6.12,6.12,0,0,0,5.2-4.27l60.25-194.25a5.15,5.15,0,0,0,.25-1.94c0-.15,0-.31,0-.46s-.05-.26-.08-.4a6.1,6.1,0,0,0-4.19-4.85,6.2,6.2,0,0,0-1.15-.25,6.1,6.1,0,0,0-1.31,0H1061.46l-60.78,206.42H1151.8Z"/><path id="c-7" data-name="c" class="cls-10" d="M1062.84,1005.75a6.12,6.12,0,0,0-7.66,4l-59.87,193.77-.14.45a6.11,6.11,0,0,0,4,7.63h0a6.12,6.12,0,0,0,7.66-4l60-194.21A6.12,6.12,0,0,0,1062.84,1005.75Z"/></g></g><path id="c-8" data-name="c" class="cls-4" d="M1177.43,1129a6.31,6.31,0,0,1,1.82-.79l-.2-.28c-3.77-5.69-3.52-12.5.56-15.2a6.49,6.49,0,0,1,2.18-.91c-1.06-4.21-.11-8.24,2.81-10.17a6.86,6.86,0,0,1,3.91-1.09c-1.33-4.14-.27-8.49,3-10.65,4.08-2.7,10-1,13.23,3.9s2.52,11-1.56,13.7a7.65,7.65,0,0,1-3.38,1.22c2.72,5.3,2.17,11.1-1.52,13.54a6.56,6.56,0,0,1-2.18.91c1.06,4.21.11,8.24-2.81,10.17a6.79,6.79,0,0,1-3.61,1.09c1.35,3.62.49,7.53-2.38,9.43-3.45,2.29-8.45.81-11.17-3.29S1174,1131.28,1177.43,1129Z"/><path class="cls-4" d="M991,1116.71l13.83-8s3.83-19.61,26-20.08l-6.21,20.08s10.93,8.48,36.85-6c25.34-5.69,14.51,12.78,22.91,14.11,12.39,2-9,26.31-34.33,30-32.74,4.82-36.62-1.88-36.62-1.88l-18.52,6.47Z"/><path id="c-9" data-name="c" class="cls-11" d="M863,1137.67c46.21-3.23,125-26.05,125-26.05,12.62,19.35,9.13,45.05,9.13,45.05-71.77,62.92-179.77,83.26-212.91,68.11-30.25-13.82-8.9-198,67.07-240.19h0C877.39,1028.65,863,1137.67,863,1137.67Z"/></g><path d="M1607.82,1812.5c-25.75,34.35-89,13.27-86.89,59.73,96.16-.6,136.13,0,136.13,0-.13-10.67-2-36-4.25-45.91Z"/><path d="M1751.69,1813.4c-25.75,34.35-89,13.27-86.89,59.73,96.16-.6,136.13,0,136.13,0-.13-10.67-2-36-4.25-45.91Z"/><path class="cls-3" d="M1563.3,1288.15s-15.61,220.13-9.27,269.07,28.8,111.68,26.26,273.56c31.35,7.59,76.76,0,76.76,0s6.73-183-26.4-264.8c13.47-79.41,56.71-261.31,56.71-261.31Z"/><path class="cls-6" d="M1622.64,1294.17s31.53,247.14,47,294,45.53,86.51,73.47,246c32.21,1.56,70.6-6.37,70.6-6.37s-12.74-195.91-62.91-241.91c-1.7-80.53,8.11-290.12,8.11-290.12Z"/><ellipse class="cls-4" cx="1690.31" cy="865.54" rx="83.28" ry="65.4" transform="translate(258.71 2113.27) rotate(-68.19)"/><circle cx="1639.01" cy="851.67" r="6.28" transform="translate(3.9 1710.81) rotate(-55.18)"/><circle cx="1685.64" cy="870.58" r="6.8" transform="translate(8.39 1757.21) rotate(-55.18)"/><path class="cls-5" d="M1653.71,865.28c-8.49,6.7-19.11,14.77-19.11,14.77s-.11,10.24,11.86,14.68c-4.33-3.93-8.13-9.15-3.62-15.19S1653.71,865.28,1653.71,865.28Z"/><path d="M1703.6,870.37a3.14,3.14,0,0,1-3-2.41c-.08-.33-2.19-8.5-9.19-8.54a3.14,3.14,0,0,1,0-6.27c9.56,0,14.16,8.75,15.26,13.35a3.14,3.14,0,0,1-3.05,3.86Z"/><path d="M1650.75,842a2.61,2.61,0,0,1-2.25-1.28,7.6,7.6,0,0,0-4.54-3.28c-2-.35-4.21.46-6.63,2.4a2.61,2.61,0,0,1-3.26-4.08c3.68-2.94,7.34-4.1,10.89-3.45,5.19,1,7.94,5.56,8,5.75a2.61,2.61,0,0,1-2.25,3.93Z"/><path d="M1739.11,894.3c-12.36-39.73,3.27-60.84,3.27-60.84-10.61-2.13-14.73,1.54-14.73,1.54-5.79-11.88-1.31-20.4-1.31-20.4-21.93-8.55-32.85,5.65-52.63,10.44-27.09,6.55-60.56-4.25-63.69-37.33a5.65,5.65,0,0,1,8.81-5.21,24.9,24.9,0,0,0,14.76,4.31,26.59,26.59,0,0,1-6-15.26,5.64,5.64,0,0,1,9.32-4.39c5.63,4.69,16.08,9.12,34.71,5.63,12.4-2.32,40.79-22.18,58.47-18.31,14.46,3.17,25.93,15.47,30.86,33.08,0,0,35.53,3.68,39.1,42.79,3.5,38.42-41,67.9-41,67.9Z"/><ellipse class="cls-4" cx="1742.17" cy="901.61" rx="19.58" ry="16.03" transform="translate(-218.07 976.07) rotate(-29.54)"/><path class="cls-5" d="M1735.79,910.78a2.35,2.35,0,0,1-.72-.81c-2.61-4.79-2.2-9.68,1.09-13.09a11.39,11.39,0,0,1,13-2.43,2.36,2.36,0,0,1-2.12,4.23,6.75,6.75,0,0,0-7.45,1.49c-1.83,1.9-2,4.57-.34,7.54a2.37,2.37,0,0,1-3.43,3.07Z"/><path class="cls-2" d="M1636.54,908.38a2,2,0,0,1,2.11-3,142,142,0,0,0,37.55,3.35,2,2,0,0,1,1.55,3.34c-3.61,4.06-10.85,10.05-21.58,9.1S1639.37,913,1636.54,908.38Z"/><path class="cls-3" d="M1591.41,964.33s1.6-4.35-136.78-3.23l-37.1,43.85c38.4,30.79,167,36.26,167,36.26Z"/><polygon class="cls-9" points="1641.69 960.76 1685.34 956.69 1727.57 968.46 1679.99 1017.42 1641.69 960.76"/><path class="cls-4" d="M1656.82,983.23c17.79,14.6,21.42,24.7,59.21,5.18l5.67-58.1-61.51-4.85Z"/><path class="cls-9" d="M1738.77,991.85h0l-12.94-5.12,1.73-18.27-35.88,28.81-10.13,1.61-9.68-3.39-30.18-34.74L1640.15,979l-11.41,2.29h0L1587.57,988l-4.9,228.44-16.24,77.72c54.62,18.17,115.69,22.7,175.73,14.42l-2-78,42.65-223.26Z"/><polygon class="cls-6" points="1673.67 1021.97 1647.88 1196.39 1662.16 1216.22 1680.77 1201.92 1687.11 1023.41 1673.67 1021.97"/><polygon class="cls-6" points="1672.13 1001.37 1681.56 998.89 1691.16 1003.08 1687.1 1023.76 1673.58 1022.54 1672.13 1001.37"/><path class="cls-6" d="M1641.09,962.22l-6.46,210.7-27.89,135.67s-44.1-4.45-71.2-30.23l34.73-102.14,11.87-213.44Z"/><polygon class="cls-12" points="1641.09 962.22 1634.66 1170.09 1602.56 1010.79 1641.09 962.22"/><path class="cls-6" d="M1730.87,975.7l-57.27,341.58s76,9.34,107.25-11.22l-17-112.29,20.73-190.63Z"/><polygon class="cls-12" points="1730.87 975.7 1697.4 1175.9 1757.33 1024.85 1730.87 975.7"/><path class="cls-4" d="M1352.43,774.82c3,10.66,4,22.15,17.47,27.9,0,0-2,35.37-.51,64.38,0,0,32.71-36.89,32.71-36.92-1.87-11.7-3.39-33.81-1.59-46.36.47-3.26,1.11-6.5,1.62-9.77,1.41-7.93,3.74-16-1.09-25.62-18.67-37-12.38-49.15-15-51-4.18-1.84-14,5.6-8.45,23.77,5.38,17.58,4,26.22,4,26.22s-14.11-2.67-19.12,2.27C1360.3,752,1348.87,762.36,1352.43,774.82Z"/><path class="cls-3" d="M1360,824.67c19.06-6.35,29.1-9.21,43.93-9.21,35.05,104.45,60,143.81,49.62,173.79-8.69,25-36.18,23-49.62,4.27C1386.22,968.81,1370.53,874.92,1360,824.67Z"/><polygon class="cls-3" points="1784.61 1003.14 1895.04 1175.9 2026.19 1249.96 1985.77 1290.2 1854.19 1232.53 1763.88 1105.12 1784.61 1003.14"/><path class="cls-2" d="M1681.56,998.89s-16.24,16.4-31.18,20.6l-17.66-46.7,9-12Z"/><path class="cls-2" d="M1681.56,998.89a78.28,78.28,0,0,0,27,25.82l25.7-42.68-6.71-13.57Z"/><g id="с"><path id="с-2" data-name="с" class="cls-9" d="M1801.75,1490.71H837.57c-22.66,0-41-12.36-41-27.61h0c0-15.25,18.37-27.61,41-27.61h964.18c22.66,0,41,12.36,41,27.61h0C1842.78,1478.34,1824.41,1490.71,1801.75,1490.71Z"/><path class="cls-9" d="M1198.94,1879.77h0a13,13,0,0,1-10.9-20.12l254.58-390.13,21.79,14.22-254.58,390.13A13,13,0,0,1,1198.94,1879.77Z"/><path class="cls-9" d="M1440.38,1879.77h0a13,13,0,0,0,10.9-20.12L1196.7,1469.53l-21.79,14.22,254.58,390.13A13,13,0,0,0,1440.38,1879.77Z"/></g><g id="с-3" data-name="с"><path id="с-4" data-name="с" class="cls-10" d="M1840.13,1873.59h0a12.46,12.46,0,0,1-12.46-12.46V1640.3h24.93v220.83A12.46,12.46,0,0,1,1840.13,1873.59Z"/><path id="с-5" data-name="с" class="cls-10" d="M1927.59,1873.59h0a12.46,12.46,0,0,1-12.46-12.46V1640.3h24.93v220.83A12.46,12.46,0,0,1,1927.59,1873.59Z"/><path id="с-6" data-name="с" class="cls-10" d="M2042.34,1873.59h0a12.46,12.46,0,0,1-12.46-12.46V1640.3h24.93v220.83A12.46,12.46,0,0,1,2042.34,1873.59Z"/><path id="с-7" data-name="с" class="cls-10" d="M2129.8,1873.59h0a12.46,12.46,0,0,1-12.46-12.46V1640.3h24.93v220.83A12.46,12.46,0,0,1,2129.8,1873.59Z"/><path id="с-8" data-name="с" class="cls-9" d="M1991.9,1312.58v262.79a5.41,5.41,0,0,1-5.41,5.41H1823.55a29.76,29.76,0,0,0-29.76,29.76h0a29.76,29.76,0,0,0,29.76,29.76h198.11a29.76,29.76,0,0,0,29.76-29.76v-298a29.76,29.76,0,0,0-29.76-29.76h0A29.76,29.76,0,0,0,1991.9,1312.58Z"/><rect id="с-9" data-name="с" class="cls-9" x="2021.66" y="1282.81" width="128.82" height="302.79"/><path id="с-10" data-name="с" class="cls-10" d="M2120.72,1312.58v262.79a5.41,5.41,0,0,1-5.41,5.41H1952.37a29.76,29.76,0,0,0-29.76,29.76h0a29.76,29.76,0,0,0,29.76,29.76h198.11a29.76,29.76,0,0,0,29.76-29.76v-298a29.76,29.76,0,0,0-29.76-29.76h0A29.76,29.76,0,0,0,2120.72,1312.58Z"/></g><g id="с-11" data-name="с"><path id="с-12" data-name="с" class="cls-10" d="M787,1873.59h0a12.46,12.46,0,0,0,12.46-12.46V1640.3H774.52v220.83A12.46,12.46,0,0,0,787,1873.59Z"/><path id="с-13" data-name="с" class="cls-10" d="M699.53,1873.59h0A12.46,12.46,0,0,0,712,1861.13V1640.3H687.07v220.83A12.46,12.46,0,0,0,699.53,1873.59Z"/><path id="с-14" data-name="с" class="cls-10" d="M584.77,1873.59h0a12.46,12.46,0,0,0,12.46-12.46V1640.3H572.31v220.83A12.46,12.46,0,0,0,584.77,1873.59Z"/><path id="с-15" data-name="с" class="cls-10" d="M497.32,1873.59h0a12.46,12.46,0,0,0,12.46-12.46V1640.3H484.86v220.83A12.46,12.46,0,0,0,497.32,1873.59Z"/><path id="с-16" data-name="с" class="cls-9" d="M635.22,1312.58v262.79a5.41,5.41,0,0,0,5.41,5.41H803.57a29.76,29.76,0,0,1,29.76,29.76h0a29.76,29.76,0,0,1-29.76,29.76H605.46a29.76,29.76,0,0,1-29.76-29.76v-298a29.76,29.76,0,0,1,29.76-29.76h0A29.76,29.76,0,0,1,635.22,1312.58Z"/><rect id="с-17" data-name="с" class="cls-9" x="476.64" y="1282.81" width="128.82" height="302.79" transform="translate(1082.09 2868.42) rotate(180)"/><path id="с-18" data-name="с" class="cls-10" d="M506.4,1312.58v262.79a5.41,5.41,0,0,0,5.41,5.41H674.75a29.76,29.76,0,0,1,29.76,29.76h0a29.76,29.76,0,0,1-29.76,29.76H476.64a29.76,29.76,0,0,1-29.76-29.76v-298a29.76,29.76,0,0,1,29.76-29.76h0A29.76,29.76,0,0,1,506.4,1312.58Z"/></g><path class="cls-6" d="M1925.6,1212.15c-27.49-9.92-70-31.6-41.73-71.22s27.5-22.33,17.34-70.46,24.06-86,56.69-76.41,40.95,36,80.94,29.3,73.23,30.72,58.18,63.15-21.48,48-7.41,66,77.5,37.29,51,80.3-38.57,40.37-29.39,62.42-12,47.15-48.77,43.72-70.05-17.33-83.54-58.38S1925.6,1212.15,1925.6,1212.15Z"/><path class="cls-4" d="M1828.34,1837.31l-21.72,6.49-16.36-16.72c.78-1.16,0-12.36-2.5-24.3l40.58-6.73C1830,1808.41,1828.34,1824.82,1828.34,1837.31Z"/><path class="cls-7" d="M1806.78,1839.89c-5.17-13.56-16.21-15.07-16.21-15.07-21.46,28.62-74.16,11.06-72.41,49.77,80.14-.5,113.45,0,113.45,0-.11-8.89-1.69-30-3.54-38.26l-4.18.74Z"/><path class="cls-4" d="M1683.87,1841.35l-22.62,1.55-13-13.85c1-1,3.48-18.11,3.64-30.31l38.12,1.7A351.8,351.8,0,0,1,1683.87,1841.35Z"/><path class="cls-7" d="M1663.71,1839.89c-5.16-13.56-16.2-15.07-16.2-15.07-21.46,28.62-74.16,11.06-72.41,49.77,80.14-.5,113.45,0,113.45,0-.11-8.89-1.69-30-3.54-38.26l-4.18.74Z"/><path class="cls-13" d="M1912.6,1463.15c-61.74,8.31-235.68,72.77-245.37,84.43-20,24.09-9.47,155.15-19,263.3l50.55,3c24.22-88.07,22.29-126.09,33.24-227.11,0,0,198.71,14.88,270.52-33.58C2076.59,1503.21,1962.53,1451.31,1912.6,1463.15Z"/><path class="cls-5" d="M1832.14,1334.76c14.59,2.49,20.21,14.2,23.73,35.76-55.59,32.75-138.17,35.08-138.17,35.08l-26.32-13S1757.59,1368.72,1832.14,1334.76Z"/><path class="cls-5" d="M1984.14,1273.13c-24.33,35.35-117.52,111.37-133,113.77l-18.69-52.31s91-98.48,107.56-115.89C1968.67,1188.5,2024,1215.49,1984.14,1273.13Z"/><path class="cls-14" d="M1881.65,1267.47c19.51-21,44.92-68.46,78-65.09s35.45,38.46,25.48,57.35-44.38,65.45-44.38,65.45Z"/><path class="cls-4" d="M1887.64,1356.4c14,4.83,22,49,18.08,52.35-60.08,23.8-185.08-1.94-185.08-1.94l-6.64-22.64S1808.65,1378.38,1887.64,1356.4Z"/><path class="cls-7" d="M2085.32,1500.26c-13.74-70.88-19.66-96-25.37-129.36-14.1-82.44,27.36-140.39-43.73-179.9l-51.82,8.35c-41.9,44.08-67.69,84.09-69.9,111.73-3,35.65,32.34,55,32.34,55l-14.23,97.07s-3.35,7.93,55.08,19S2085.32,1500.26,2085.32,1500.26Z"/><path class="cls-4" d="M2042.72,1283.19c-24.33,35.76-128.28,126.64-143.9,127.44l-11.18-54.23s94.43-110.67,111-128.28C2027.25,1197.57,2082.55,1224.88,2042.72,1283.19Z"/><path class="cls-14" d="M1943.34,1283.44c18.15-26.41,54.77-75.15,87.83-71.77s35.45,38.46,25.49,57.35-44.38,65.45-44.38,65.45Z"/><path class="cls-4" d="M1714,1384.17c-19.11-4.7-60.67-18.66-77.4,25.1,4.2,8,19.58-11.8,26.19-13.63,10.49-2.92,19.49,2.6,27.43,10.18,11.38,10.88,30.42,1,30.42,1Z"/><path class="cls-14" d="M1699.13,1435H1519.6v-24.11h203.64A24.11,24.11,0,0,1,1699.13,1435Z"/><path class="cls-14" d="M1427.28,1283.58,1519.6,1435l21.34-11.22L1437.4,1251h0A24.11,24.11,0,0,0,1427.28,1283.58Z"/><ellipse class="cls-4" cx="1988.08" cy="1111.05" rx="67.88" ry="53.32" transform="translate(444.63 2785.76) rotate(-76.53)"/><path class="cls-4" d="M2026.06,1142.67l-47.59,29.5s-4.22,21-6.33,27.86c-4.35,14.08,12.31,20.23,26.4,11.47s17.67-20.49,17.67-20.49Z"/><path class="cls-6" d="M1933,1084.71c13.52,1.16,42.82-1.18,53.51-13.85,7.62,25.72,40,50.21,66.78,61.69,1.07-26.39.88-74.95-46.44-95.12C1969.64,1021.59,1933,1084.71,1933,1084.71Z"/><circle cx="1945.07" cy="1105.93" r="5.12" transform="translate(87.89 2353.84) rotate(-63.52)"/><circle cx="1984.91" cy="1115.67" r="5.54" transform="translate(101.26 2394.9) rotate(-63.52)"/><path class="cls-6" d="M1996,1113.55a1.92,1.92,0,0,1-.89-.92c-2.78-6-10.28-7.16-10.36-7.17a1.93,1.93,0,0,1,.54-3.82c.39.05,9.64,1.45,13.31,9.37a1.93,1.93,0,0,1-2.61,2.54Z"/><path class="cls-6" d="M1938.49,1100.79a1.93,1.93,0,0,1-.5-3.1,13.53,13.53,0,0,1,13.43-3.29,1.93,1.93,0,0,1-1.25,3.65,9.67,9.67,0,0,0-9.48,2.39A1.93,1.93,0,0,1,1938.49,1100.79Z"/><path class="cls-5" d="M1952.95,1119.35c-2.81,2.89-5.27,5.87-8,7.56a2,2,0,0,0-.67,2.7c2.17,3.84,8.49,7,12.37,8.65a.54.54,0,0,0,.57-.91c-3.92-3.43-5.6-6-6.3-7.35a2.42,2.42,0,0,1,0-2.19c.8-1.59,2.4-4.82,3.48-7.5A.91.91,0,0,0,1952.95,1119.35Z"/><ellipse class="cls-4" cx="2034.18" cy="1134.01" rx="15.96" ry="13.06" transform="translate(-267.68 1488.04) rotate(-37.88)"/><path class="cls-5" d="M2030.12,1142.16a1.93,1.93,0,0,1-.68-.57c-2.67-3.55-2.92-7.55-.67-10.68a9.29,9.29,0,0,1,10.18-3.49,1.93,1.93,0,1,1-1.21,3.66,5.5,5.5,0,0,0-5.83,2.08c-1.25,1.75-1,3.92.62,6.12a1.93,1.93,0,0,1-2.4,2.88Z"/><path class="cls-15" d="M1981.68,1474.42c-61.74,8.31-235.94,64.77-245.63,76.43-20,24.09,24.55,127.24,38.81,260h59.6c-.62-94.62,6.93-181.66-22.18-212.51,0,0,167-11.14,250.2-11.14C2104.91,1587.23,2128.4,1443.85,1981.68,1474.42Z"/><path class="cls-2" d="M1950.34,1150a1.57,1.57,0,0,1,1.44-2.5,111.42,111.42,0,0,0,29.56,0,1.57,1.57,0,0,1,1.44,2.5c-2.54,3.42-7.78,8.6-16.23,8.59S1952.87,1153.45,1950.34,1150Z"/><path class="cls-4" d="M764.71,1372.46c-11.79,7.85-8.53,50.6-4.07,52.78,61.31,7.49,164.86-43.3,164.86-43.3l4.06-22.72S843.06,1373.7,764.71,1372.46Z"/><path class="cls-4" d="M630,1298.32c21.92,35,117.85,125.68,132.74,127L775.41,1374s-86.11-109.17-101.29-126.6C647.93,1217.12,594.11,1241.17,630,1298.32Z"/><path class="cls-6" d="M682.43,1111c2.64-35.88-7.74-67.59-36.35-83.73-29-16.36-65.33-.31-65.33-.31h0s-30.75-10.94-58.62,19.76-6.79,57.71-18.19,80.1c-6.75,13.26-41.08,16-32.21,59.18,2.56,12.46,17.54,20.84,30.23,21.67,22.29,1.46,43.05-7.15,52.09,1.46,29.78,28.4,95.77,18.13,105-7.85,2.86-8.05,62.22,7.53,56.3-47.33C712.33,1126.2,680.07,1143.11,682.43,1111Z"/><polygon class="cls-4" points="628.03 1227.04 580.9 1218.34 563.23 1241.86 600.79 1318.86 656.03 1271.97 628.03 1227.04"/><path class="cls-15" d="M689.12,1412.71c-.81-14.65,22.87-74.82,10.41-105.1-9.08-24.36-24.24-65.26-42.81-72.08C648,1232.3,639,1230.06,628,1227c0,0,6.16,30.7-6.67,31.73-24.71,2-40.45-40.43-40.45-40.43-13.32-1.27-74.42,18.8-74.39,23.82.14,39.3,32.07,96.63,42.51,139.12,4.11,45.89-11.9,100.8-12,106,0,0,98.29,27.63,156.55-4.45C694.84,1478.39,690.23,1432.94,689.12,1412.71Z"/><path class="cls-15" d="M551.85,1440.15s-21.7,54.74-27,89.2,24.57,56.57,24.57,56.57H797.77s26.59-43.12,18.93-72.89-25.27-34.51-25.27-34.51Z"/><path class="cls-5" d="M801.1,1477c-31.71-4.47-123.72,31.27-163,108.92H747.91Z"/><path class="cls-5" d="M766.33,1505.59a88,88,0,0,0,11.09-15.78c9.25-16.3,31.56-19.06,44.15-5.17,45.77,50.46,143.34,165.49,165.09,179.81,6.14,4,42,24.69,76.1,20.61,0,0,16.83,6.41,5.62,19.77-5.77,6.88-92.4,14-92.4,14l-6.75-25.44C918.79,1656,856,1658.73,802.78,1590.49,773.47,1552.91,766.33,1505.59,766.33,1505.59Z"/><path class="cls-7" d="M993.52,1733.48l34.86,22.63,4.79-5.71L1004.89,1724c16.06-12.67,53.27-2.1,53.27-2.1,12.19-7.87,35.94-33.4,38.39-47.08-7.8-9.72-33.79,10.28-33.79,10.28,1,4.33-7.26,19.34-13.79,21.9-28.39,6.12-56.68-1.94-79.76-13.66C969.22,1693.37,949.93,1722.6,993.52,1733.48Z"/><path class="cls-4" d="M765.82,1512.44a16.41,16.41,0,0,0-12,13.54c-2.48,17.61-15.31,53.28,2,90.63,42.59,91.7,67.73,152.11,72.2,175.78-11.12,20.83,33.23,77.75,33.9,81.47l31.93-10s-18.32-27.25-24.92-37.92c-15.71-25.41-18.28-56.59-20.83-80.76-10.9-103.19,7.84-168.34-66.82-228.87C776.9,1512.74,771.31,1511,765.82,1512.44Z"/><path class="cls-7" d="M812.15,1836l3.15,41.44,7.45.35,3.82-38.48c19.82,5.09,34,41.09,34,41.09,13.65,4.92,48.35,8.33,60.72,2,3-12.1-28.66-20.64-28.66-20.64-2.87,3.39-19.78,6-25.78,2.32-22.08-18.86-34.08-46.24-38.76-71.71C828.06,1792.39,794.38,1794.77,812.15,1836Z"/><path class="cls-4" d="M616.12,1188.55l-38.27-5.73,3,35.52s7.32,16.09,15.82,17.18L628,1227Z"/><ellipse class="cls-4" cx="601.12" cy="1123.15" rx="60.33" ry="76.82" transform="translate(-245.01 170.85) rotate(-13.47)"/><circle cx="649.8" cy="1117.35" r="5.79" transform="translate(-429.96 406.83) rotate(-26.47)"/><circle cx="604.71" cy="1128.37" r="6.27" transform="translate(-439.66 387.98) rotate(-26.48)"/><path class="cls-6" d="M592.16,1126a2.16,2.16,0,0,0,1-1c3.14-6.78,11.64-8.1,11.72-8.12a2.18,2.18,0,0,0-.62-4.32c-.44.06-10.91,1.64-15.06,10.6a2.18,2.18,0,0,0,3,2.87Z"/><path class="cls-6" d="M657.25,1111.54a2.18,2.18,0,0,0,.56-3.51,15.32,15.32,0,0,0-15.2-3.73,2.18,2.18,0,0,0,1.41,4.13,10.94,10.94,0,0,1,10.72,2.7A2.18,2.18,0,0,0,657.25,1111.54Z"/><path class="cls-5" d="M640.88,1132.54c3.18,3.27,6,6.64,9,8.55a2.3,2.3,0,0,1,.76,3.06c-2.45,4.35-9.61,7.93-14,9.79a.61.61,0,0,1-.64-1c4.43-3.89,6.33-6.75,7.13-8.32a2.74,2.74,0,0,0,0-2.48c-.91-1.79-2.72-5.45-3.94-8.49A1,1,0,0,1,640.88,1132.54Z"/><ellipse class="cls-4" cx="548.97" cy="1149.13" rx="14.78" ry="18.06" transform="translate(-695.1 876.8) rotate(-52.12)"/><path class="cls-5" d="M553.56,1158.35a2.16,2.16,0,0,0,.77-.64c3-4,3.31-8.54.76-12.09a10.51,10.51,0,0,0-11.52-4,2.18,2.18,0,0,0,1.37,4.14,6.22,6.22,0,0,1,6.6,2.35c1.42,2,1.17,4.43-.7,6.92a2.18,2.18,0,0,0,2.72,3.26Z"/><path class="cls-2" d="M605.06,1165.43a1.74,1.74,0,0,1,1.6-2.77,123.24,123.24,0,0,0,32.75,0,1.74,1.74,0,0,1,1.6,2.77c-2.81,3.79-8.61,9.54-18,9.54S607.87,1169.22,605.06,1165.43Z"/><path class="cls-6" d="M541.65,1133.55c38.68-5.18,92.8-44.59,97.23-64.81-7.48-24.29-47.34-36.5-69.85-25.25S525.27,1103,541.65,1133.55Z"/><path class="cls-2" d="M903.48,1426h0a9.81,9.81,0,0,1-6.28-12.36l59.7-182.89a9.81,9.81,0,0,1,12.36-6.28h0a9.81,9.81,0,0,1,6.28,12.36l-59.7,182.89A9.81,9.81,0,0,1,903.48,1426Z"/><path class="cls-4" d="M935.19,1360.49l12.16-37.26s10.54,21.44,0,41.78-20.58,21.26-20.58,21.26Z"/><path class="cls-4" d="M917.82,1350.51c-3.08-7.23-10.32-25.33-3.08-25.25s8.42,8.87,8.42,8.87Z"/><path class="cls-4" d="M319.75,1241.61c16.42-16.56,5.65-33.55,5.65-33.55,9-1.93,56.54,70.07,77,115.83,35.75-36,98.74-84.69,115.78-87.53,0,0,23-6.18,31.24,21.61,7.37,24.8-21.37,42.37-21.37,42.37s-123,86.81-141.14,79.09C358.63,1367.42,333,1264.1,319.75,1241.61Z"/><path class="cls-4" d="M294.08,1239.56c10,.61,22.44-4.35,26.31,4.65l19.8-9.65,1.2-11.94c-17-27.26-58.49-35-62.6-35.36-10.67-.94-15.62-2-16.46-.61s-3.45,10.92,12,12.78c19.43,2.33,6.53,17.87-32.88,3.08-9.87-3.7-28.44,1.1-21.72,8.32C227.16,1218.76,248.42,1236.77,294.08,1239.56Z"/><path class="cls-15" d="M1366.86,684.37a78.78,78.78,0,0,1-4.45,26.1c-14.54,41.74-63.07,72.4-120.72,72.4s-106.17-30.66-120.71-72.4a78.76,78.76,0,0,1-4.45-26.1Z"/><path class="cls-13" d="M1366.86,684.37a78.78,78.78,0,0,1-4.45,26.1H1121a78.76,78.76,0,0,1-4.45-26.1Z"/><path class="cls-16" d="M1503.81,262.12C1503.81,117.48,1386.66.2,1242.07,0,1099.46-.2,982.17,114.72,979.62,257.31a261,261,0,0,0,54.9,165.39c44.73,57.61,69.55,128.17,69.55,201.11v1.29h275.23v-1.29c0-73,25-143.61,69.74-201.35A260.92,260.92,0,0,0,1503.81,262.12Z"/><path class="cls-2" d="M1281.35,595.43a6.7,6.7,0,0,1-6.33-8.91c.31-.89,31.21-89.94,53.67-180.62C1368.5,245.17,1348,219,1337.36,215.27c-31.33-11.09-56.27,5.32-71.68,21a133.6,133.6,0,0,0-13,15.51,254.12,254.12,0,0,1,17.78,37.87c13.88,37.08,17.57,71.72,9.87,92.65-5.94,16.15-18.57,24.34-35.56,23.06-16-1.21-27.76-10.49-33.91-26.84-7.06-18.75-6.15-46.33,2.5-75.65a202,202,0,0,1,23.53-51.68c-9.24-14.62-19.94-27.21-31.56-35.67-17.25-12.57-33.45-13.12-48.15-1.63-30.35,23.73-31.52,95.09-3.36,206.38,21.71,85.8,53.56,165.12,53.88,165.91a6.7,6.7,0,0,1-12.43,5c-.32-.8-32.48-80.85-54.41-167.52-30-118.57-27.3-192.7,8.07-220.35,19.43-15.19,42.26-14.7,64.3,1.36,11,8.05,22,20.12,31.85,34.88a141.88,141.88,0,0,1,11-12.68c25.64-26.15,56.09-34.78,85.73-24.28,18.45,6.53,26,31.37,23.14,75.93-2.12,32.86-10,76.82-23.29,130.63-22.61,91.27-53.7,180.84-54,181.73A6.7,6.7,0,0,1,1281.35,595.43Zm-36.78-331.07a190.25,190.25,0,0,0-18.31,42.34c-7.73,26.19-8.78,51.29-2.81,67.14,4.31,11.43,11.62,17.39,22.38,18.2,11.09.84,18.07-3.72,22-14.32C1276.68,353.57,1265.9,304.27,1244.56,264.36Z"/><rect class="cls-15" x="1077.9" y="592.09" width="327.58" height="100.85" rx="49.39" ry="49.39"/><path class="cls-16" d="M1687,272.89h-85.7a22.09,22.09,0,0,1-22.09-22.09h0a22.09,22.09,0,0,1,22.09-22.09H1687a22.09,22.09,0,0,1,22.09,22.09h0A22.09,22.09,0,0,1,1687,272.89Z"/><path class="cls-16" d="M882.1,272.89H796.4a22.09,22.09,0,0,1-22.09-22.09h0a22.09,22.09,0,0,1,22.09-22.09h85.7a22.09,22.09,0,0,1,22.09,22.09h0A22.09,22.09,0,0,1,882.1,272.89Z"/><path class="cls-16" d="M936.56,91.56l-68.2-51.9a22.09,22.09,0,0,1-4.2-31h0a22.09,22.09,0,0,1,31-4.2l68.2,51.9a22.09,22.09,0,0,1,4.2,31h0A22.09,22.09,0,0,1,936.56,91.56Z"/><path class="cls-16" d="M1542.45,91.56l68.2-51.9a22.09,22.09,0,0,0,4.2-31h0a22.09,22.09,0,0,0-31-4.2l-68.2,51.9a22.09,22.09,0,0,0-4.2,31h0A22.09,22.09,0,0,0,1542.45,91.56Z"/><path class="cls-16" d="M936.56,437.44l-68.2,51.9a22.09,22.09,0,0,0-4.2,31h0a22.09,22.09,0,0,0,31,4.2l68.2-51.9a22.09,22.09,0,0,0,4.2-31h0A22.09,22.09,0,0,0,936.56,437.44Z"/><path class="cls-16" d="M1542.45,437.44l68.2,51.9a22.09,22.09,0,0,1,4.2,31h0a22.09,22.09,0,0,1-31,4.2l-68.2-51.9a22.09,22.09,0,0,1-4.2-31h0A22.09,22.09,0,0,1,1542.45,437.44Z"/><path id="Vector_25" data-name="Vector 25" class="cls-15" d="M1298.54,1342.61s-19.71-37.19-27.59-76.63c-6.85-33.7-6.53-74-5.69-95.45a5,5,0,0,1,9.17-2.38c12.4,20.28,34.83,61,39.87,97.86a762.8,762.8,0,0,1,7,76.63Z"/><path id="Vector_26" data-name="Vector 26" class="cls-15" d="M1319.15,1342.61s13.14-45.46,27.59-75.79c10.51-22,34.42-48.45,46.7-61.22a3.37,3.37,0,0,1,5.75,3c-3.15,16.81-10.44,50-22.35,72.58-16.56,31.46-44.13,61.47-44.13,61.47Z"/><path id="Vector_27" data-name="Vector 27" class="cls-13" d="M1251.58,1302.28a4.6,4.6,0,0,1,5.56-6.46,78.71,78.71,0,0,1,27,15.67c14.7,13.36,17.44,28.58,17.44,28.58l-5.06,1.7S1269.17,1336.79,1251.58,1302.28Z"/><path id="Vector_28" data-name="Vector 28" class="cls-13" d="M1354.43,1196a5,5,0,0,0-9.13-2.58c-10.26,14.28-27.49,42.42-33.12,76.91-7.06,43,1.16,72.33,1.16,72.33h5.81s21.39-40.53,29.73-68C1356.76,1248.72,1355.75,1214.3,1354.43,1196Z"/><path id="Vector_29" data-name="Vector 29" class="cls-13" d="M1332.71,1342.61s12.3-41,54.4-56.59a3,3,0,0,1,3.82,4c-5.55,13.54-21.37,45.88-48.09,52.6Z"/><path id="Vector_23" data-name="Vector 23" class="cls-10" d="M1370,1335.67h-97.44L1285,1435.5h72.43Z"/><path class="cls-7" d="M1265.21,1413.74v14.33h3.9a3.43,3.43,0,0,1,3.43,3.43v.58a3.43,3.43,0,0,1-3.43,3.43H1102.84a4,4,0,0,1-4-4v-20.64a4,4,0,0,1,4-4h166.27a3.43,3.43,0,0,1,3.43,3.43h0a3.43,3.43,0,0,1-3.43,3.43Z"/><path class="cls-2" d="M1120.28,1413.74H1265.7a0,0,0,0,1,0,0v14.33a0,0,0,0,1,0,0H1120.28a2.91,2.91,0,0,1-2.91-2.91v-8.5A2.91,2.91,0,0,1,1120.28,1413.74Z"/><path class="cls-15" d="M1084.15,1382.8v15.86h-3.9a3.62,3.62,0,0,0-3.43,3.79v.64a3.62,3.62,0,0,0,3.43,3.79h166.27a4.22,4.22,0,0,0,4-4.41v-22.84a4.22,4.22,0,0,0-4-4.41H1080.25a3.62,3.62,0,0,0-3.43,3.79h0a3.62,3.62,0,0,0,3.43,3.79Z"/><path class="cls-2" d="M1086.73,1382.8H1232a0,0,0,0,1,0,0v15.85a0,0,0,0,1,0,0H1086.73a3.06,3.06,0,0,1-3.06-3.06v-9.72A3.06,3.06,0,0,1,1086.73,1382.8Z" transform="translate(2315.65 2781.46) rotate(180)"/><rect class="cls-7" x="1090.37" y="1334.82" width="163.74" height="25.71" rx="6.06" ry="6.06"/><rect class="cls-10" x="1101.07" y="1360.53" width="163.74" height="14.69" rx="4.58" ry="4.58"/></g></g></svg>